<svg xmlns="http://www.w3.org/2000/svg" xmlns:xlink="http://www.w3.org/1999/xlink" viewBox="0 0 64 64" version="1.1">
<g id="surface1">
<path style=" " d="M 33.699219 1 C 32.175781 1 30.757813 1.648438 29.761719 2.753906 C 29.09375 2.25 28.277344 1.96875 27.414063 1.96875 C 25.589844 1.96875 24.054688 3.230469 23.628906 4.925781 C 21.359375 5.226563 19.371094 6.664063 18.378906 8.742188 C 16.421875 8.824219 14.558594 9.652344 13.179688 11.050781 C 9.972656 11.738281 7.609375 14.445313 7.390625 17.75 L 7.015625 23.394531 C 6.902344 25.097656 7.503906 26.789063 8.671875 28.035156 C 9.628906 29.0625 10.914063 29.722656 12.289063 29.925781 L 11.046875 56 L 11 56 C 9.347656 56 8 57.347656 8 59 C 8 60.652344 9.347656 62 11 62 L 51 62 C 52.652344 62 54 60.652344 54 59 C 54 57.347656 52.652344 56 51 56 L 50.953125 56 L 50.476563 45.980469 C 54.753906 45.757813 58.351563 42.5 58.9375 38.21875 L 59.90625 31.078125 C 60.21875 28.792969 59.527344 26.480469 58.007813 24.738281 C 56.488281 22.996094 54.292969 22 51.980469 22 L 51 22 C 50.425781 22 49.867188 22.136719 49.351563 22.371094 L 49.089844 16.859375 C 49.070313 16.429688 48.945313 15.097656 48.816406 14.808594 C 48.167969 13.0625 46.589844 11.335938 44.847656 10.253906 L 44.847656 10.21875 C 44.847656 7.050781 42.066406 4.476563 38.835938 4.914063 C 38.207031 2.644531 36.140625 1 33.699219 1 Z M 33.699219 3 C 35.476563 3 36.941406 4.398438 37.027344 6.1875 C 37.042969 6.503906 37.207031 6.792969 37.472656 6.96875 C 37.738281 7.148438 38.066406 7.1875 38.363281 7.078125 C 38.765625 6.933594 39.136719 6.867188 39.5 6.867188 C 41.34375 6.867188 42.847656 8.367188 42.847656 10.21875 C 42.847656 10.335938 42.832031 10.449219 42.8125 10.5625 C 42.8125 10.566406 42.800781 10.664063 42.796875 10.667969 C 42.742188 11.082031 42.953125 11.488281 43.324219 11.683594 C 44.382813 12.246094 45.285156 13.050781 46.003906 14 L 15.90625 14 C 14.300781 14 12.988281 15.253906 12.910156 16.855469 L 12.382813 27.917969 C 11.527344 27.753906 10.746094 27.328125 10.132813 26.671875 C 9.332031 25.816406 8.933594 24.695313 9.007813 23.527344 L 9.382813 17.878906 C 9.550781 15.402344 11.371094 13.386719 13.816406 12.964844 C 14.050781 12.933594 14.269531 12.820313 14.425781 12.640625 C 15.519531 11.429688 17.082031 10.734375 18.714844 10.734375 C 18.765625 10.734375 18.820313 10.738281 18.875 10.742188 L 18.988281 10.75 C 19.421875 10.765625 19.839844 10.5 19.988281 10.082031 C 20.664063 8.160156 22.480469 6.867188 24.515625 6.867188 C 25.066406 6.867188 25.515625 6.421875 25.515625 5.867188 C 25.515625 4.820313 26.363281 3.96875 27.410156 3.96875 C 28.0625 3.96875 28.664063 4.300781 29.015625 4.863281 C 29.207031 5.167969 29.539063 5.359375 29.902344 5.328125 C 30.257813 5.316406 30.582031 5.113281 30.75 4.796875 C 31.335938 3.6875 32.464844 3 33.699219 3 Z M 15.90625 16 L 46.09375 16 C 46.628906 16 47.066406 16.417969 47.09375 16.953125 L 48.953125 56 L 13.046875 56 L 14.90625 16.953125 C 14.933594 16.417969 15.371094 16 15.90625 16 Z M 18 18 C 17.449219 18 17 18.445313 17 19 C 17 19.554688 17.449219 20 18 20 L 36 20 C 36.550781 20 37 19.554688 37 19 C 37 18.445313 36.550781 18 36 18 Z M 40 18 C 39.449219 18 39 18.445313 39 19 C 39 19.554688 39.449219 20 40 20 L 44 20 C 44.550781 20 45 19.554688 45 19 C 45 18.445313 44.550781 18 44 18 Z M 51 24 L 51.980469 24 C 53.714844 24 55.363281 24.75 56.5 26.054688 C 57.640625 27.359375 58.160156 29.09375 57.925781 30.8125 L 56.953125 37.949219 C 56.5 41.277344 53.707031 43.808594 50.382813 43.984375 L 49.460938 24.628906 C 49.53125 24.59375 49.605469 24.5625 49.671875 24.507813 C 50.035156 24.179688 50.507813 24 51 24 Z M 16 50 C 15.449219 50 15 50.445313 15 51 L 15 53 C 15 53.554688 15.449219 54 16 54 C 16.550781 54 17 53.554688 17 53 L 17 51 C 17 50.445313 16.550781 50 16 50 Z M 21 50 C 20.449219 50 20 50.445313 20 51 L 20 53 C 20 53.554688 20.449219 54 21 54 C 21.550781 54 22 53.554688 22 53 L 22 51 C 22 50.445313 21.550781 50 21 50 Z M 26 50 C 25.449219 50 25 50.445313 25 51 L 25 53 C 25 53.554688 25.449219 54 26 54 C 26.550781 54 27 53.554688 27 53 L 27 51 C 27 50.445313 26.550781 50 26 50 Z M 31 50 C 30.449219 50 30 50.445313 30 51 L 30 53 C 30 53.554688 30.449219 54 31 54 C 31.550781 54 32 53.554688 32 53 L 32 51 C 32 50.445313 31.550781 50 31 50 Z M 36 50 C 35.449219 50 35 50.445313 35 51 L 35 53 C 35 53.554688 35.449219 54 36 54 C 36.550781 54 37 53.554688 37 53 L 37 51 C 37 50.445313 36.550781 50 36 50 Z M 41 50 C 40.449219 50 40 50.445313 40 51 L 40 53 C 40 53.554688 40.449219 54 41 54 C 41.550781 54 42 53.554688 42 53 L 42 51 C 42 50.445313 41.550781 50 41 50 Z M 46 50 C 45.449219 50 45 50.445313 45 51 L 45 53 C 45 53.554688 45.449219 54 46 54 C 46.550781 54 47 53.554688 47 53 L 47 51 C 47 50.445313 46.550781 50 46 50 Z M 11 58 L 51 58 C 51.550781 58 52 58.449219 52 59 C 52 59.550781 51.550781 60 51 60 L 11 60 C 10.449219 60 10 59.550781 10 59 C 10 58.449219 10.449219 58 11 58 Z "></path>
</g>
</svg>