<svg xmlns="http://www.w3.org/2000/svg" xmlns:xlink="http://www.w3.org/1999/xlink" viewBox="0 0 64 64" version="1.1">
<g id="surface1">
<path style=" " d="M 51.050781 5.988281 C 50.824219 5.976563 50.601563 6.050781 50.402344 6.199219 L 47 8.800781 L 43.597656 6.300781 C 43.199219 6 42.800781 6 42.402344 6.300781 L 39 8.800781 L 35.597656 6.300781 C 35.199219 6 34.800781 6 34.402344 6.300781 L 31 8.800781 L 27.597656 6.300781 C 27.199219 6 26.800781 6 26.402344 6.300781 L 23 8.800781 L 19.597656 6.300781 C 19.199219 6 18.800781 6 18.402344 6.300781 L 15 8.800781 L 11.597656 6.300781 C 11.300781 6.101563 10.898438 6 10.597656 6.199219 C 10.199219 6.300781 10 6.601563 10 7 L 10 54 C 10 54.300781 10.101563 54.5 10.300781 54.699219 L 12.300781 56.699219 C 12.5 56.898438 12.699219 57 13 57 C 13.199219 57 13.398438 56.902344 13.597656 56.800781 L 17 54.300781 L 20.402344 56.800781 C 20.800781 57.101563 21.199219 57.101563 21.597656 56.800781 L 25 54.300781 L 28.402344 56.800781 C 28.800781 57.101563 29.199219 57.101563 29.597656 56.800781 L 33 54.300781 L 36.402344 56.800781 C 36.800781 57.101563 37.199219 57.101563 37.597656 56.800781 L 41 54.300781 L 44.402344 56.800781 C 44.800781 57.101563 45.199219 57.101563 45.597656 56.800781 L 49 54.300781 L 52.402344 56.800781 C 52.699219 57 53.101563 57.101563 53.402344 56.902344 C 53.699219 56.699219 54 56.398438 54 56 L 54 9 C 54 8.699219 53.898438 8.5 53.699219 8.300781 L 51.699219 6.300781 C 51.5 6.101563 51.277344 6 51.050781 5.988281 Z M 19 8.199219 L 22.402344 10.699219 C 22.800781 11 23.199219 11 23.597656 10.699219 L 27 8.199219 L 30.402344 10.699219 C 30.800781 11 31.199219 11 31.597656 10.699219 L 35 8.199219 L 38.402344 10.699219 C 38.800781 11 39.199219 11 39.597656 10.699219 L 43 8.199219 L 46.402344 10.699219 C 46.800781 11 47.199219 11 47.597656 10.699219 L 50.902344 8.199219 L 52 9.398438 L 52 44 C 51.398438 44 51 44.398438 51 45 L 51 47 C 51 47.601563 51.398438 48 52 48 L 52 54 L 49.597656 52.199219 C 49.199219 51.898438 48.800781 51.898438 48.402344 52.199219 L 45 54.800781 L 41.597656 52.300781 C 41.398438 52.101563 41.199219 52 41 52 C 40.800781 52 40.601563 52.097656 40.402344 52.199219 L 37 54.800781 L 33.597656 52.300781 C 33.199219 52 32.800781 52 32.402344 52.300781 L 29 54.800781 L 25.597656 52.300781 C 25.199219 52 24.800781 52 24.402344 52.300781 L 21 54.800781 L 17.597656 52.300781 C 17.199219 52 16.800781 52 16.402344 52.300781 L 13.097656 54.800781 L 12 53.597656 L 12 48 C 12.601563 48 13 47.601563 13 47 L 13 45 C 13 44.398438 12.601563 44 12 44 L 12 9 L 14.402344 10.800781 C 14.800781 11.101563 15.199219 11.101563 15.597656 10.800781 Z M 19 16 C 18.398438 16 18 16.398438 18 17 C 18 17.601563 18.398438 18 19 18 L 35 18 C 35.601563 18 36 17.601563 36 17 C 36 16.398438 35.601563 16 35 16 Z M 39 16 C 38.398438 16 38 16.398438 38 17 C 38 17.601563 38.398438 18 39 18 L 45 18 C 45.601563 18 46 17.601563 46 17 C 46 16.398438 45.601563 16 45 16 Z M 19 20 C 18.398438 20 18 20.398438 18 21 C 18 21.601563 18.398438 22 19 22 L 30 22 C 30.601563 22 31 21.601563 31 21 C 31 20.398438 30.601563 20 30 20 Z M 42 20 C 41.398438 20 41 20.398438 41 21 L 41 22 C 39.300781 22 38 23.300781 38 25 L 38 28 C 38 29.699219 39.300781 31 41 31 L 43 31 C 43.601563 31 44 31.398438 44 32 L 44 35 C 44 35.601563 43.601563 36 43 36 L 41 36 C 40.398438 36 40 35.601563 40 35 L 40 34 C 40 33.398438 39.601563 33 39 33 C 38.398438 33 38 33.398438 38 34 L 38 35 C 38 36.699219 39.300781 38 41 38 L 41 39 C 41 39.601563 41.398438 40 42 40 C 42.601563 40 43 39.601563 43 39 L 43 38 C 44.699219 38 46 36.699219 46 35 L 46 32 C 46 30.300781 44.699219 29 43 29 L 41 29 C 40.398438 29 40 28.601563 40 28 L 40 25 C 40 24.398438 40.398438 24 41 24 L 43 24 C 43.601563 24 44 24.398438 44 25 L 44 26 C 44 26.601563 44.398438 27 45 27 C 45.601563 27 46 26.601563 46 26 L 46 25 C 46 23.300781 44.699219 22 43 22 L 43 21 C 43 20.398438 42.601563 20 42 20 Z M 19 28 C 18.398438 28 18 28.398438 18 29 C 18 29.601563 18.398438 30 19 30 L 29 30 C 29.601563 30 30 29.601563 30 29 C 30 28.398438 29.601563 28 29 28 Z M 19 32 C 18.398438 32 18 32.398438 18 33 C 18 33.601563 18.398438 34 19 34 L 32 34 C 32.601563 34 33 33.601563 33 33 C 33 32.398438 32.601563 32 32 32 Z M 19 36 C 18.398438 36 18 36.398438 18 37 C 18 37.601563 18.398438 38 19 38 L 23 38 C 23.601563 38 24 37.601563 24 37 C 24 36.398438 23.601563 36 23 36 Z M 27 36 C 26.398438 36 26 36.398438 26 37 C 26 37.601563 26.398438 38 27 38 L 29 38 C 29.601563 38 30 37.601563 30 37 C 30 36.398438 29.601563 36 29 36 Z M 17 44 C 16.398438 44 16 44.398438 16 45 L 16 47 C 16 47.601563 16.398438 48 17 48 C 17.601563 48 18 47.601563 18 47 L 18 45 C 18 44.398438 17.601563 44 17 44 Z M 22 44 C 21.398438 44 21 44.398438 21 45 L 21 47 C 21 47.601563 21.398438 48 22 48 C 22.601563 48 23 47.601563 23 47 L 23 45 C 23 44.398438 22.601563 44 22 44 Z M 27 44 C 26.398438 44 26 44.398438 26 45 L 26 47 C 26 47.601563 26.398438 48 27 48 C 27.601563 48 28 47.601563 28 47 L 28 45 C 28 44.398438 27.601563 44 27 44 Z M 32 44 C 31.398438 44 31 44.398438 31 45 L 31 47 C 31 47.601563 31.398438 48 32 48 C 32.601563 48 33 47.601563 33 47 L 33 45 C 33 44.398438 32.601563 44 32 44 Z M 37 44 C 36.398438 44 36 44.398438 36 45 L 36 47 C 36 47.601563 36.398438 48 37 48 C 37.601563 48 38 47.601563 38 47 L 38 45 C 38 44.398438 37.601563 44 37 44 Z M 42 44 C 41.398438 44 41 44.398438 41 45 L 41 47 C 41 47.601563 41.398438 48 42 48 C 42.601563 48 43 47.601563 43 47 L 43 45 C 43 44.398438 42.601563 44 42 44 Z M 47 44 C 46.398438 44 46 44.398438 46 45 L 46 47 C 46 47.601563 46.398438 48 47 48 C 47.601563 48 48 47.601563 48 47 L 48 45 C 48 44.398438 47.601563 44 47 44 Z "></path>
</g>
</svg>