<svg xmlns="http://www.w3.org/2000/svg" xmlns:xlink="http://www.w3.org/1999/xlink" viewBox="0 0 64 64" version="1.1">
<g id="surface1">
<path style=" " d="M 23.140625 10 C 14.773438 10 7.5625 16.117188 6.117188 24.308594 C 5.640625 24.535156 5.222656 24.875 4.921875 25.320313 C 4.359375 26.148438 4.25 27.199219 4.617188 28.128906 C 4.96875 28.980469 5.429688 29.75 6 30.429688 L 6 36.539063 C 4.800781 37.230469 4 38.519531 4 40 C 4 41.480469 4.800781 42.769531 6 43.460938 L 6 49 C 6 51.761719 8.238281 54 11 54 L 53 54 C 55.761719 54 58 51.761719 58 49 L 58 43.460938 C 59.199219 42.769531 60 41.480469 60 40 C 60 38.519531 59.199219 37.230469 58 36.539063 L 58 30.429688 C 58.570313 29.75 59.03125 28.980469 59.378906 28.128906 C 59.75 27.199219 59.640625 26.148438 59.078125 25.320313 C 58.777344 24.875 58.359375 24.535156 57.886719 24.308594 C 56.4375 16.117188 49.226563 10 40.859375 10 Z M 23.140625 12 L 40.859375 12 C 48.035156 12 54.269531 17.082031 55.800781 24 L 8.195313 24 C 9.730469 17.082031 15.964844 12 23.140625 12 Z M 28 14 C 27.449219 14 27 14.449219 27 15 C 27 15.550781 27.449219 16 28 16 L 30 16 C 30.550781 16 31 15.550781 31 15 C 31 14.449219 30.550781 14 30 14 Z M 37 16 C 36.449219 16 36 16.449219 36 17 C 36 17.550781 36.449219 18 37 18 L 39 18 C 39.550781 18 40 17.550781 40 17 C 40 16.449219 39.550781 16 39 16 Z M 16 17 C 15.449219 17 15 17.449219 15 18 C 15 18.550781 15.449219 19 16 19 L 18 19 C 18.550781 19 19 18.550781 19 18 C 19 17.449219 18.550781 17 18 17 Z M 47 19 C 46.449219 19 46 19.449219 46 20 C 46 20.550781 46.449219 21 47 21 L 49 21 C 49.550781 21 50 20.550781 50 20 C 50 19.449219 49.550781 19 49 19 Z M 26 20 C 25.449219 20 25 20.449219 25 21 C 25 21.550781 25.449219 22 26 22 L 28 22 C 28.550781 22 29 21.550781 29 21 C 29 20.449219 28.550781 20 28 20 Z M 7.410156 26 L 56.589844 26 C 56.929688 26 57.230469 26.160156 57.421875 26.4375 C 57.609375 26.730469 57.648438 27.070313 57.519531 27.378906 C 57.167969 28.261719 56.648438 29.019531 56 29.652344 C 55.179688 30.460938 54.148438 31.039063 53.011719 31.289063 C 50.167969 31.917969 47.289063 30.679688 45.871094 28.179688 C 45.828125 28.109375 45.789063 28.050781 45.730469 28 C 45.550781 27.800781 45.28125 27.679688 45 27.679688 C 44.71875 27.679688 44.449219 27.800781 44.269531 28 C 44.210938 28.050781 44.171875 28.109375 44.128906 28.179688 C 42.980469 30.199219 40.820313 31.460938 38.5 31.460938 C 36.179688 31.460938 34.019531 30.199219 32.871094 28.179688 C 32.828125 28.109375 32.789063 28.050781 32.730469 28 C 32.550781 27.800781 32.28125 27.679688 32 27.679688 C 31.71875 27.679688 31.449219 27.800781 31.269531 28 C 31.210938 28.050781 31.171875 28.109375 31.128906 28.179688 C 29.980469 30.199219 27.820313 31.460938 25.5 31.460938 C 23.179688 31.460938 21.019531 30.199219 19.871094 28.179688 C 19.828125 28.109375 19.78125 28.050781 19.730469 28 C 19.351563 27.621094 18.648438 27.621094 18.269531 28 C 18.21875 28.050781 18.171875 28.109375 18.128906 28.179688 C 16.710938 30.679688 13.839844 31.929688 10.988281 31.289063 C 9.851563 31.039063 8.820313 30.460938 8 29.652344 C 7.351563 29.019531 6.832031 28.261719 6.480469 27.378906 C 6.351563 27.070313 6.390625 26.730469 6.578125 26.4375 C 6.769531 26.160156 7.070313 26 7.410156 26 Z M 19 30.421875 C 20.601563 32.320313 22.980469 33.460938 25.5 33.460938 C 28.03125 33.460938 30.398438 32.320313 32 30.421875 C 33.601563 32.320313 35.96875 33.460938 38.5 33.460938 C 41.019531 33.460938 43.398438 32.320313 45 30.421875 C 47.019531 32.839844 50.238281 33.960938 53.4375 33.238281 C 54.359375 33.03125 55.230469 32.667969 56 32.179688 L 56 36 L 8 36 L 8 32.179688 C 8.769531 32.667969 9.640625 33.03125 10.5625 33.238281 C 13.761719 33.960938 16.980469 32.839844 19 30.421875 Z M 8 38 L 56 38 C 57.101563 38 58 38.898438 58 40 C 58 41.101563 57.101563 42 56 42 L 8 42 C 6.898438 42 6 41.101563 6 40 C 6 38.898438 6.898438 38 8 38 Z M 8 44 L 56 44 L 56 49 C 56 50.648438 54.648438 52 53 52 L 11 52 C 9.351563 52 8 50.648438 8 49 Z M 12 46 C 11.449219 46 11 46.449219 11 47 L 11 49 C 11 49.550781 11.449219 50 12 50 C 12.550781 50 13 49.550781 13 49 L 13 47 C 13 46.449219 12.550781 46 12 46 Z M 17 46 C 16.449219 46 16 46.449219 16 47 L 16 49 C 16 49.550781 16.449219 50 17 50 C 17.550781 50 18 49.550781 18 49 L 18 47 C 18 46.449219 17.550781 46 17 46 Z M 22 46 C 21.449219 46 21 46.449219 21 47 L 21 49 C 21 49.550781 21.449219 50 22 50 C 22.550781 50 23 49.550781 23 49 L 23 47 C 23 46.449219 22.550781 46 22 46 Z M 27 46 C 26.449219 46 26 46.449219 26 47 L 26 49 C 26 49.550781 26.449219 50 27 50 C 27.550781 50 28 49.550781 28 49 L 28 47 C 28 46.449219 27.550781 46 27 46 Z M 32 46 C 31.449219 46 31 46.449219 31 47 L 31 49 C 31 49.550781 31.449219 50 32 50 C 32.550781 50 33 49.550781 33 49 L 33 47 C 33 46.449219 32.550781 46 32 46 Z M 37 46 C 36.449219 46 36 46.449219 36 47 L 36 49 C 36 49.550781 36.449219 50 37 50 C 37.550781 50 38 49.550781 38 49 L 38 47 C 38 46.449219 37.550781 46 37 46 Z M 42 46 C 41.449219 46 41 46.449219 41 47 L 41 49 C 41 49.550781 41.449219 50 42 50 C 42.550781 50 43 49.550781 43 49 L 43 47 C 43 46.449219 42.550781 46 42 46 Z M 47 46 C 46.449219 46 46 46.449219 46 47 L 46 49 C 46 49.550781 46.449219 50 47 50 C 47.550781 50 48 49.550781 48 49 L 48 47 C 48 46.449219 47.550781 46 47 46 Z M 52 46 C 51.449219 46 51 46.449219 51 47 L 51 49 C 51 49.550781 51.449219 50 52 50 C 52.550781 50 53 49.550781 53 49 L 53 47 C 53 46.449219 52.550781 46 52 46 Z "></path>
</g>
</svg>