<svg xmlns="http://www.w3.org/2000/svg" xmlns:xlink="http://www.w3.org/1999/xlink" viewBox="0 0 64 64" version="1.1">
<g id="surface1">
<path style=" " d="M 34 1.015625 C 33.871094 1.042969 33.746094 1.089844 33.632813 1.167969 C 33.171875 1.476563 33.046875 2.09375 33.355469 2.554688 L 34.714844 4.585938 C 34.914063 4.886719 34.933594 5.269531 34.777344 5.59375 L 33.8125 7.519531 C 33.332031 8.472656 33.402344 9.625 33.988281 10.515625 L 34.625 11.472656 C 34.84375 11.8125 34.84375 12.246094 34.621094 12.578125 L 34.09375 13.375 C 33.421875 14.378906 33.421875 15.679688 34.085938 16.6875 L 34.613281 17.496094 C 34.839844 17.835938 34.835938 18.273438 34.609375 18.609375 L 33.363281 20.4375 C 33.050781 20.894531 33.171875 21.515625 33.625 21.828125 C 33.800781 21.941406 33.996094 22 34.1875 22 C 34.507813 22 34.824219 21.847656 35.015625 21.5625 L 36.261719 19.734375 C 36.949219 18.726563 36.957031 17.414063 36.285156 16.390625 L 35.753906 15.589844 C 35.53125 15.25 35.53125 14.816406 35.753906 14.484375 L 36.285156 13.6875 C 36.957031 12.679688 36.957031 11.378906 36.292969 10.371094 L 35.65625 9.414063 C 35.460938 9.113281 35.441406 8.734375 35.597656 8.414063 L 36.5625 6.484375 C 37.042969 5.523438 36.972656 4.375 36.375 3.476563 L 35.019531 1.445313 C 34.789063 1.101563 34.382813 0.945313 34 1.015625 Z M 28.003906 8.015625 C 27.878906 8.039063 27.753906 8.085938 27.636719 8.164063 C 27.175781 8.46875 27.050781 9.085938 27.355469 9.546875 L 28.625 11.472656 C 28.84375 11.8125 28.84375 12.242188 28.621094 12.578125 L 28.09375 13.375 C 27.421875 14.378906 27.421875 15.679688 28.085938 16.6875 L 28.613281 17.496094 C 28.839844 17.835938 28.835938 18.269531 28.609375 18.609375 L 27.363281 20.4375 C 27.050781 20.894531 27.171875 21.515625 27.625 21.828125 C 27.800781 21.945313 27.996094 22 28.1875 22 C 28.507813 22 28.824219 21.847656 29.015625 21.5625 L 30.261719 19.734375 C 30.949219 18.726563 30.957031 17.414063 30.285156 16.390625 L 29.753906 15.589844 C 29.53125 15.25 29.53125 14.816406 29.753906 14.484375 L 30.285156 13.6875 C 30.957031 12.679688 30.957031 11.378906 30.292969 10.371094 L 29.023438 8.445313 C 28.796875 8.101563 28.390625 7.945313 28.003906 8.015625 Z M 42.375 11.046875 C 41.992188 10.972656 41.585938 11.128906 41.359375 11.472656 L 40.09375 13.371094 C 39.421875 14.375 39.417969 15.679688 40.082031 16.6875 L 40.613281 17.492188 C 40.839844 17.832031 40.835938 18.269531 40.609375 18.609375 L 39.359375 20.4375 C 39.050781 20.890625 39.171875 21.511719 39.625 21.824219 C 39.800781 21.941406 39.996094 22 40.1875 22 C 40.507813 22 40.824219 21.847656 41.015625 21.5625 L 42.261719 19.734375 C 42.949219 18.726563 42.957031 17.414063 42.285156 16.390625 L 41.753906 15.589844 C 41.53125 15.25 41.53125 14.816406 41.753906 14.484375 L 43.019531 12.585938 C 43.328125 12.125 43.203125 11.503906 42.746094 11.199219 C 42.628906 11.121094 42.503906 11.070313 42.375 11.046875 Z M 22.003906 14.046875 C 21.878906 14.070313 21.753906 14.121094 21.636719 14.195313 C 21.175781 14.5 21.050781 15.121094 21.355469 15.582031 L 22.613281 17.496094 C 22.839844 17.835938 22.835938 18.269531 22.609375 18.609375 L 21.363281 20.4375 C 21.050781 20.894531 21.171875 21.515625 21.625 21.828125 C 21.800781 21.945313 21.996094 22 22.1875 22 C 22.507813 22 22.824219 21.847656 23.015625 21.5625 L 24.261719 19.734375 C 24.949219 18.726563 24.957031 17.414063 24.285156 16.390625 L 23.023438 14.480469 C 22.796875 14.136719 22.390625 13.976563 22.003906 14.046875 Z M 10.617188 24 C 9.996094 24 9.425781 24.28125 9.042969 24.769531 C 8.660156 25.257813 8.527344 25.882813 8.679688 26.484375 L 13.527344 45.882813 C 14.3125 49.03125 16.066406 51.871094 18.480469 54 L 4.1875 54 C 3.808594 54 3.464844 54.214844 3.296875 54.554688 C 3.125 54.894531 3.164063 55.296875 3.390625 55.597656 L 4.589844 57.199219 C 5.902344 58.953125 7.996094 60 10.1875 60 L 52.1875 60 C 54.378906 60 56.472656 58.953125 57.789063 57.199219 L 58.988281 55.597656 C 59.21875 55.296875 59.253906 54.890625 59.085938 54.550781 C 58.914063 54.214844 58.570313 54 58.1875 54 L 44.832031 54 C 46.730469 52.324219 48.199219 50.210938 49.128906 47.851563 C 52.511719 47.230469 58 45.964844 59.941406 44.019531 C 61.269531 42.695313 62 40.933594 62 39.054688 C 62 37.175781 61.269531 35.414063 59.941406 34.085938 C 58.003906 32.148438 55.210938 31.574219 52.738281 32.410156 L 54.046875 26.429688 C 54.179688 25.835938 54.035156 25.21875 53.652344 24.746094 C 53.269531 24.269531 52.703125 24 52.09375 24 Z M 10.617188 26 L 52.09375 26 L 47.9375 44.992188 C 47.117188 48.753906 44.753906 52.019531 41.453125 54 L 21.855469 54 C 18.6875 52.097656 16.363281 48.980469 15.46875 45.394531 Z M 15 28 C 14.445313 28 14 28.449219 14 29 C 14 29.550781 14.445313 30 15 30 L 19 30 C 19.554688 30 20 29.550781 20 29 C 20 28.449219 19.554688 28 19 28 Z M 23 28 C 22.445313 28 22 28.449219 22 29 C 22 29.550781 22.445313 30 23 30 L 48 30 C 48.554688 30 49 29.550781 49 29 C 49 28.449219 48.554688 28 48 28 Z M 54.625 34.042969 C 56.035156 33.941406 57.460938 34.433594 58.527344 35.5 C 59.476563 36.449219 60 37.710938 60 39.054688 C 60 40.398438 59.476563 41.660156 58.527344 42.609375 C 57.304688 43.832031 53.457031 44.949219 49.820313 45.683594 C 49.839844 45.59375 49.871094 45.507813 49.890625 45.421875 L 52.199219 34.875 C 52.945313 34.375 53.78125 34.101563 54.625 34.042969 Z M 19 46 C 18.445313 46 18 46.449219 18 47 L 18 49 C 18 49.550781 18.445313 50 19 50 C 19.554688 50 20 49.550781 20 49 L 20 47 C 20 46.449219 19.554688 46 19 46 Z M 24 46 C 23.445313 46 23 46.449219 23 47 L 23 49 C 23 49.550781 23.445313 50 24 50 C 24.554688 50 25 49.550781 25 49 L 25 47 C 25 46.449219 24.554688 46 24 46 Z M 29 46 C 28.445313 46 28 46.449219 28 47 L 28 49 C 28 49.550781 28.445313 50 29 50 C 29.554688 50 30 49.550781 30 49 L 30 47 C 30 46.449219 29.554688 46 29 46 Z M 34 46 C 33.445313 46 33 46.449219 33 47 L 33 49 C 33 49.550781 33.445313 50 34 50 C 34.554688 50 35 49.550781 35 49 L 35 47 C 35 46.449219 34.554688 46 34 46 Z M 39 46 C 38.445313 46 38 46.449219 38 47 L 38 49 C 38 49.550781 38.445313 50 39 50 C 39.554688 50 40 49.550781 40 49 L 40 47 C 40 46.449219 39.554688 46 39 46 Z M 44 46 C 43.445313 46 43 46.449219 43 47 L 43 49 C 43 49.550781 43.445313 50 44 50 C 44.554688 50 45 49.550781 45 49 L 45 47 C 45 46.449219 44.554688 46 44 46 Z M 6.1875 56 L 56.1875 56 C 55.25 57.253906 53.753906 58 52.1875 58 L 10.1875 58 C 8.625 58 7.128906 57.253906 6.1875 56 Z "></path>
</g>
</svg>