<svg xmlns="http://www.w3.org/2000/svg" xmlns:xlink="http://www.w3.org/1999/xlink" viewBox="0 0 64 64" version="1.1">
<g id="surface1">
<path style=" " d="M 26 6 C 18.28125 6 12 12.28125 12 20 L 12 22 C 12 25.496094 13.371094 29.808594 15.699219 33.332031 L 5.488281 39.246094 C 2.101563 41.207031 0 44.855469 0 48.765625 L 0 57 C 0 58.652344 1.347656 60 3 60 L 49 60 C 50.652344 60 52 58.652344 52 57 L 52 54 L 59 54 C 60.652344 54 62 52.652344 62 51 L 62 47.4375 C 62 43.691406 60.121094 40.242188 56.976563 38.203125 L 47.808594 32.269531 C 48.117188 31.941406 48.414063 31.589844 48.699219 31.226563 C 48.703125 31.21875 48.703125 31.210938 48.710938 31.203125 C 50.757813 28.554688 52 25.167969 52 22 L 52 20 C 52 13.382813 46.617188 8 40 8 C 38.160156 8 36.425781 8.429688 34.863281 9.175781 C 32.449219 7.195313 29.363281 6 26 6 Z M 26 8 C 32.617188 8 38 13.382813 38 20 L 38 22 C 38 29.054688 32.351563 38 26 38 C 19.648438 38 14 29.054688 14 22 L 14 20 C 14 13.382813 19.382813 8 26 8 Z M 40 10 C 45.515625 10 50 14.484375 50 20 L 50 22 C 50 24.964844 48.726563 28.152344 46.675781 30.515625 C 46.605469 30.601563 46.539063 30.691406 46.464844 30.769531 C 46.171875 31.089844 45.867188 31.398438 45.546875 31.683594 C 45.007813 32.164063 44.4375 32.578125 43.855469 32.914063 C 43.375 33.1875 43.210938 33.800781 43.484375 34.28125 C 43.671875 34.601563 44.007813 34.78125 44.355469 34.78125 C 44.523438 34.78125 44.695313 34.738281 44.851563 34.644531 C 45.339844 34.367188 45.808594 34.027344 46.273438 33.660156 L 55.890625 39.886719 C 58.460938 41.550781 60 44.375 60 47.4375 L 60 51 C 60 51.550781 59.550781 52 59 52 L 52 52 L 52 50 C 52.554688 50 53 49.554688 53 49 L 53 47 C 53 46.445313 52.554688 46 52 46 C 51.878906 46 51.761719 46.03125 51.652344 46.070313 C 50.929688 43.234375 49.101563 40.746094 46.511719 39.246094 L 36.300781 33.332031 C 38.628906 29.808594 40 25.496094 40 22 L 40 20 C 40 16.417969 38.636719 13.15625 36.417969 10.675781 C 37.53125 10.246094 38.734375 10 40 10 Z M 16.886719 34.957031 C 19.28125 37.914063 22.421875 40 26 40 C 29.578125 40 32.71875 37.914063 35.113281 34.957031 L 45.511719 40.976563 C 48.28125 42.582031 50 45.566406 50 48.765625 L 50 57 C 50 57.550781 49.550781 58 49 58 L 3 58 C 2.449219 58 2 57.550781 2 57 L 2 48.765625 C 2 45.566406 3.722656 42.582031 6.492188 40.976563 Z M 23 46 C 22.445313 46 22 46.445313 22 47 C 22 47.554688 22.445313 48 23 48 L 29 48 C 29.554688 48 30 47.554688 30 47 C 30 46.445313 29.554688 46 29 46 Z M 57 46 C 56.445313 46 56 46.445313 56 47 L 56 49 C 56 49.554688 56.445313 50 57 50 C 57.554688 50 58 49.554688 58 49 L 58 47 C 58 46.445313 57.554688 46 57 46 Z M 6 52 C 5.445313 52 5 52.445313 5 53 L 5 55 C 5 55.554688 5.445313 56 6 56 C 6.554688 56 7 55.554688 7 55 L 7 53 C 7 52.445313 6.554688 52 6 52 Z M 11 52 C 10.445313 52 10 52.445313 10 53 L 10 55 C 10 55.554688 10.445313 56 11 56 C 11.554688 56 12 55.554688 12 55 L 12 53 C 12 52.445313 11.554688 52 11 52 Z M 16 52 C 15.445313 52 15 52.445313 15 53 L 15 55 C 15 55.554688 15.445313 56 16 56 C 16.554688 56 17 55.554688 17 55 L 17 53 C 17 52.445313 16.554688 52 16 52 Z M 21 52 C 20.445313 52 20 52.445313 20 53 L 20 55 C 20 55.554688 20.445313 56 21 56 C 21.554688 56 22 55.554688 22 55 L 22 53 C 22 52.445313 21.554688 52 21 52 Z M 26 52 C 25.445313 52 25 52.445313 25 53 L 25 55 C 25 55.554688 25.445313 56 26 56 C 26.554688 56 27 55.554688 27 55 L 27 53 C 27 52.445313 26.554688 52 26 52 Z M 31 52 C 30.445313 52 30 52.445313 30 53 L 30 55 C 30 55.554688 30.445313 56 31 56 C 31.554688 56 32 55.554688 32 55 L 32 53 C 32 52.445313 31.554688 52 31 52 Z M 36 52 C 35.445313 52 35 52.445313 35 53 L 35 55 C 35 55.554688 35.445313 56 36 56 C 36.554688 56 37 55.554688 37 55 L 37 53 C 37 52.445313 36.554688 52 36 52 Z M 41 52 C 40.445313 52 40 52.445313 40 53 L 40 55 C 40 55.554688 40.445313 56 41 56 C 41.554688 56 42 55.554688 42 55 L 42 53 C 42 52.445313 41.554688 52 41 52 Z M 46 52 C 45.445313 52 45 52.445313 45 53 L 45 55 C 45 55.554688 45.445313 56 46 56 C 46.554688 56 47 55.554688 47 55 L 47 53 C 47 52.445313 46.554688 52 46 52 Z "></path>
</g>
</svg>