<svg xmlns="http://www.w3.org/2000/svg" xmlns:xlink="http://www.w3.org/1999/xlink" viewBox="0 0 64 64" version="1.1">
<g id="surface1">
<path style=" " d="M 27.421875 0.0117188 C 18.570313 0.144531 9.855469 3.152344 2.820313 8.617188 L 1.929688 9.300781 C 0.339844 10.539063 -0.351563 12.601563 0.171875 14.550781 L 3.230469 25.949219 C 5.699219 35.167969 12.140625 42.628906 20.910156 46.402344 L 22.121094 46.921875 C 23.128906 50.550781 24.820313 54.019531 27.152344 57.152344 L 29.152344 59.839844 C 30.902344 62.179688 33.578125 63.46875 36.359375 63.46875 C 37.550781 63.46875 38.769531 63.230469 39.929688 62.730469 L 43.011719 61.402344 C 51.78125 57.628906 58.21875 50.167969 60.6875 40.949219 L 63.75 29.550781 C 64.269531 27.601563 63.582031 25.539063 61.988281 24.300781 L 61.097656 23.621094 C 55.480469 19.25 48.789063 16.460938 41.820313 15.449219 L 38.8125 4.1875 C 38.289063 2.25 36.660156 0.808594 34.660156 0.539063 L 33.550781 0.382813 C 31.511719 0.101563 29.460938 -0.0234375 27.421875 0.0117188 Z M 28.03125 2.007813 C 29.78125 2.007813 31.539063 2.121094 33.28125 2.359375 L 34.390625 2.519531 C 35.589844 2.679688 36.5625 3.539063 36.878906 4.710938 L 39.679688 15.1875 L 39.929688 16.121094 C 40.03125 16.5 40.132813 16.878906 40.210938 17.261719 C 40.410156 18.148438 40.570313 19.050781 40.6875 19.9375 C 40.769531 20.621094 40.839844 21.300781 40.871094 21.96875 C 41.277344 28.71875 39.308594 35.410156 35.171875 40.960938 L 33.160156 43.652344 C 32.589844 44.414063 31.878906 45.011719 31.097656 45.472656 C 30.855469 45.214844 30.488281 45.085938 30.121094 45.183594 L 28.1875 45.703125 C 27.820313 45.800781 27.566406 46.097656 27.484375 46.441406 C 26.574219 46.433594 25.660156 46.269531 24.78125 45.890625 L 23.796875 45.46875 L 21.699219 44.5625 C 21.648438 44.539063 21.601563 44.519531 21.550781 44.488281 C 13.429688 40.941406 7.460938 34.007813 5.160156 25.429688 L 2.101563 14.03125 C 1.789063 12.859375 2.199219 11.628906 3.160156 10.878906 L 4.039063 10.199219 C 10.890625 4.878906 19.410156 2.007813 28.03125 2.007813 Z M 26.589844 4.535156 C 26.035156 4.539063 25.589844 4.988281 25.59375 5.539063 C 25.59375 6.089844 26.042969 6.535156 26.59375 6.535156 L 26.597656 6.535156 C 27.542969 6.527344 28.511719 6.566406 29.46875 6.640625 C 29.496094 6.644531 29.523438 6.648438 29.550781 6.648438 C 30.066406 6.648438 30.503906 6.25 30.546875 5.726563 C 30.59375 5.175781 30.179688 4.695313 29.628906 4.648438 C 28.617188 4.570313 27.59375 4.53125 26.589844 4.535156 Z M 21.832031 4.894531 C 17.515625 5.527344 13.402344 6.976563 9.601563 9.203125 C 9.125 9.484375 8.96875 10.097656 9.246094 10.574219 C 9.433594 10.890625 9.765625 11.066406 10.109375 11.066406 C 10.28125 11.066406 10.457031 11.023438 10.613281 10.929688 C 14.191406 8.832031 18.0625 7.464844 22.125 6.871094 C 22.667969 6.792969 23.046875 6.285156 22.96875 5.738281 C 22.890625 5.191406 22.378906 4.8125 21.832031 4.894531 Z M 33.75 11.136719 C 33.191406 11.101563 32.722656 11.523438 32.6875 12.074219 C 32.6875 12.097656 32.519531 14.519531 30.34375 15.101563 C 28.195313 15.679688 26.847656 13.730469 26.796875 13.65625 C 26.492188 13.191406 25.871094 13.0625 25.410156 13.371094 C 24.949219 13.671875 24.824219 14.292969 25.125 14.753906 C 25.203125 14.871094 26.785156 17.214844 29.519531 17.214844 C 29.941406 17.214844 30.386719 17.160156 30.859375 17.03125 C 34.414063 16.078125 34.675781 12.351563 34.6875 12.191406 C 34.71875 11.640625 34.300781 11.167969 33.75 11.136719 Z M 16.359375 15.796875 C 15.8125 15.753906 15.335938 16.179688 15.300781 16.734375 C 15.300781 16.757813 15.132813 19.175781 12.953125 19.761719 C 10.8125 20.332031 9.460938 18.390625 9.40625 18.3125 C 9.105469 17.851563 8.484375 17.722656 8.023438 18.027344 C 7.5625 18.332031 7.433594 18.949219 7.738281 19.410156 C 7.8125 19.527344 9.398438 21.871094 12.136719 21.871094 C 12.554688 21.871094 13 21.816406 13.472656 21.6875 C 17.027344 20.738281 17.289063 17.007813 17.296875 16.851563 C 17.332031 16.300781 16.914063 15.828125 16.359375 15.796875 Z M 42.3125 17.539063 C 48.660156 18.597656 54.742188 21.210938 59.878906 25.199219 L 60.761719 25.878906 C 61.71875 26.628906 62.128906 27.859375 61.820313 29.03125 L 58.761719 40.429688 C 56.449219 49.058594 50.421875 56.03125 42.21875 59.5625 L 39.140625 60.890625 C 38.261719 61.269531 37.34375 61.433594 36.433594 61.441406 C 36.351563 61.097656 36.097656 60.800781 35.730469 60.703125 L 33.796875 60.183594 C 33.429688 60.082031 33.0625 60.214844 32.816406 60.472656 C 32.039063 60.011719 31.328125 59.414063 30.761719 58.648438 L 28.75 55.957031 C 26.898438 53.480469 25.488281 50.78125 24.53125 47.9375 C 25.519531 48.300781 26.550781 48.46875 27.5625 48.46875 C 30.332031 48.46875 33.019531 47.179688 34.769531 44.839844 L 36.769531 42.148438 C 41.097656 36.339844 43.210938 29.359375 42.890625 22.308594 C 44.742188 22.679688 46.570313 23.21875 48.347656 23.929688 C 48.46875 23.980469 48.601563 24 48.71875 24 C 49.121094 24 49.5 23.757813 49.652344 23.371094 C 49.859375 22.859375 49.601563 22.269531 49.089844 22.070313 C 47.019531 21.25 44.890625 20.640625 42.71875 20.25 C 42.628906 19.351563 42.492188 18.4375 42.3125 17.539063 Z M 22.925781 22.160156 C 22.398438 22.179688 21.917969 22.589844 21.910156 23.144531 L 21.828125 28.183594 C 21.816406 28.707031 22.050781 29.1875 22.460938 29.511719 C 22.753906 29.738281 23.105469 29.859375 23.46875 29.859375 C 23.613281 29.859375 23.757813 29.839844 23.902344 29.800781 L 26.824219 29.019531 C 27.359375 28.875 27.675781 28.328125 27.53125 27.796875 C 27.386719 27.261719 26.839844 26.945313 26.308594 27.089844 L 23.832031 27.75 L 23.90625 23.175781 C 23.917969 22.625 23.476563 22.171875 22.925781 22.160156 Z M 53.007813 24.011719 C 52.621094 23.964844 52.226563 24.148438 52.019531 24.511719 C 51.75 24.988281 51.917969 25.597656 52.394531 25.875 C 53.222656 26.34375 54.042969 26.859375 54.828125 27.402344 C 55 27.523438 55.203125 27.578125 55.394531 27.578125 C 55.714844 27.578125 56.027344 27.429688 56.21875 27.148438 C 56.535156 26.695313 56.421875 26.070313 55.96875 25.757813 C 55.128906 25.179688 54.265625 24.632813 53.386719 24.136719 C 53.265625 24.066406 53.136719 24.027344 53.007813 24.011719 Z M 27.972656 31.632813 C 27.210938 31.660156 26.460938 31.773438 25.726563 31.96875 C 22.796875 32.753906 20.257813 34.855469 18.375 38.042969 C 18.09375 38.515625 18.25 39.128906 18.722656 39.410156 C 18.882813 39.503906 19.058594 39.550781 19.234375 39.550781 C 19.574219 39.550781 19.910156 39.375 20.09375 39.058594 C 21.707031 36.332031 23.832031 34.546875 26.246094 33.902344 C 28.644531 33.257813 31.324219 33.75 33.984375 35.324219 C 34.460938 35.601563 35.074219 35.445313 35.355469 34.96875 C 35.636719 34.496094 35.480469 33.882813 35.003906 33.597656 C 32.652344 32.210938 30.261719 31.546875 27.972656 31.632813 Z M 50.480469 31.683594 C 47.695313 31.640625 46.082031 34.023438 46.007813 34.140625 C 45.703125 34.597656 45.832031 35.214844 46.285156 35.519531 C 46.746094 35.824219 47.363281 35.703125 47.671875 35.246094 C 47.730469 35.164063 49.074219 33.222656 51.222656 33.796875 C 53.371094 34.371094 53.566406 36.726563 53.574219 36.820313 C 53.605469 37.351563 54.042969 37.761719 54.566406 37.761719 C 54.589844 37.761719 54.609375 37.761719 54.628906 37.761719 C 55.183594 37.726563 55.601563 37.253906 55.566406 36.703125 C 55.558594 36.542969 55.292969 32.8125 51.738281 31.859375 C 51.296875 31.742188 50.875 31.6875 50.480469 31.683594 Z M 27.925781 35.5 C 27.800781 35.480469 27.664063 35.488281 27.53125 35.523438 L 25.597656 36.042969 C 25.066406 36.1875 24.75 36.734375 24.890625 37.265625 C 25.011719 37.714844 25.414063 38.011719 25.859375 38.011719 C 25.941406 38.011719 26.03125 38 26.117188 37.972656 L 28.046875 37.453125 C 28.582031 37.3125 28.902344 36.765625 28.757813 36.230469 C 28.652344 35.832031 28.3125 35.550781 27.925781 35.5 Z M 42.25 38.339844 C 41.699219 38.316406 41.226563 38.726563 41.191406 39.28125 L 40.933594 43.84375 L 38.515625 43 C 37.992188 42.820313 37.421875 43.09375 37.238281 43.613281 C 37.058594 44.136719 37.335938 44.707031 37.855469 44.890625 L 40.714844 45.886719 C 40.894531 45.949219 41.078125 45.980469 41.261719 45.980469 C 41.578125 45.980469 41.894531 45.886719 42.171875 45.703125 C 42.605469 45.410156 42.871094 44.945313 42.902344 44.425781 L 43.1875 39.394531 C 43.21875 38.84375 42.800781 38.371094 42.25 38.339844 Z M 29.21875 40.328125 C 29.09375 40.308594 28.960938 40.316406 28.828125 40.355469 L 26.894531 40.871094 C 26.359375 41.015625 26.042969 41.5625 26.1875 42.097656 C 26.308594 42.542969 26.710938 42.839844 27.152344 42.839844 C 27.238281 42.839844 27.324219 42.828125 27.410156 42.804688 L 29.34375 42.285156 C 29.878906 42.140625 30.195313 41.59375 30.050781 41.0625 C 29.945313 40.660156 29.605469 40.382813 29.21875 40.328125 Z M 34.0625 47.988281 C 33.8125 48.023438 33.570313 48.15625 33.40625 48.378906 C 33.074219 48.820313 33.160156 49.445313 33.601563 49.777344 C 35.480469 51.191406 37.601563 51.898438 39.855469 51.898438 C 42.007813 51.898438 44.28125 51.253906 46.578125 49.957031 C 47.0625 49.6875 47.230469 49.078125 46.960938 48.59375 C 46.691406 48.117188 46.082031 47.945313 45.597656 48.21875 C 41.636719 50.453125 37.800781 50.441406 34.804688 48.183594 C 34.585938 48.015625 34.316406 47.953125 34.0625 47.988281 Z M 34.695313 55.328125 C 34.308594 55.382813 33.972656 55.660156 33.867188 56.0625 C 33.722656 56.59375 34.042969 57.140625 34.574219 57.285156 L 36.507813 57.804688 C 36.59375 57.828125 36.679688 57.839844 36.765625 57.839844 C 37.207031 57.839844 37.613281 57.542969 37.730469 57.097656 C 37.875 56.5625 37.558594 56.011719 37.027344 55.871094 L 35.09375 55.355469 C 34.960938 55.316406 34.824219 55.308594 34.695313 55.328125 Z "></path>
</g>
</svg>