<svg xmlns="http://www.w3.org/2000/svg" xmlns:xlink="http://www.w3.org/1999/xlink" viewBox="0 0 64 64" version="1.1">
<g id="surface1">
<path style=" " d="M 35 0 C 20.839844 0 10.328125 9.410156 10.007813 22.375 C 10 22.6875 9.953125 22.984375 9.863281 23.25 L 4.445313 39.511719 C 4.25 40.085938 4.328125 40.707031 4.65625 41.21875 C 4.980469 41.734375 5.515625 42.0625 6.117188 42.128906 L 9.109375 42.464844 C 9.617188 42.519531 10 42.945313 10 43.457031 L 10 52.53125 C 10 53.953125 10.605469 55.308594 11.664063 56.253906 C 12.722656 57.203125 14.136719 57.65625 15.550781 57.5 L 21.589844 56.828125 L 23.84375 56.578125 L 23.308594 60.605469 C 23.195313 61.460938 23.457031 62.328125 24.027344 62.976563 C 24.59375 63.625 25.417969 64 26.28125 64 L 52.777344 64 C 53.625 64 54.441406 63.640625 55.007813 63.007813 C 55.574219 62.375 55.851563 61.53125 55.761719 60.6875 L 54.324219 47.039063 C 54.1875 45.738281 54.414063 44.4375 54.980469 43.28125 C 58.261719 36.554688 60 29.191406 60 22 C 60 9.046875 49.71875 0 35 0 Z M 35 2 C 50.890625 2 58 12.046875 58 22 C 58 28.890625 56.335938 35.949219 53.183594 42.40625 C 52.453125 43.898438 52.160156 45.574219 52.339844 47.246094 L 53.773438 60.894531 C 53.800781 61.179688 53.714844 61.457031 53.519531 61.671875 C 53.328125 61.882813 53.0625 62 52.777344 62 L 26.28125 62 C 25.988281 62 25.722656 61.878906 25.53125 61.65625 C 25.335938 61.4375 25.253906 61.15625 25.292969 60.867188 L 25.890625 56.351563 L 29.109375 55.996094 C 29.660156 55.933594 30.054688 55.4375 29.996094 54.890625 C 29.933594 54.34375 29.441406 53.953125 28.890625 54.003906 L 18.234375 55.1875 C 18.234375 55.1875 18.234375 55.191406 18.230469 55.191406 L 15.328125 55.515625 C 14.488281 55.613281 13.632813 55.335938 13 54.765625 C 12.351563 54.191406 12 53.394531 12 52.53125 L 12 43.457031 C 12 41.925781 10.851563 40.644531 9.328125 40.472656 L 6.339844 40.140625 L 11.761719 23.882813 C 11.914063 23.429688 11.996094 22.9375 12.007813 22.421875 C 12.300781 10.589844 21.96875 2 35 2 Z M 35 5 C 34.445313 5 34 5.445313 34 6 L 34 8 C 34 8.554688 34.445313 9 35 9 C 35.554688 9 36 8.554688 36 8 L 36 6 C 36 5.445313 35.554688 5 35 5 Z M 29.574219 5.742188 C 29.445313 5.722656 29.308594 5.730469 29.175781 5.765625 C 28.644531 5.910156 28.324219 6.457031 28.46875 6.992188 L 28.984375 8.921875 C 29.105469 9.371094 29.507813 9.664063 29.953125 9.664063 C 30.039063 9.664063 30.125 9.652344 30.214844 9.632813 C 30.746094 9.488281 31.0625 8.9375 30.921875 8.40625 L 30.402344 6.472656 C 30.292969 6.070313 29.957031 5.792969 29.574219 5.742188 Z M 40.425781 5.742188 C 40.042969 5.792969 39.707031 6.070313 39.597656 6.472656 L 39.078125 8.40625 C 38.9375 8.9375 39.253906 9.488281 39.785156 9.632813 C 39.875 9.652344 39.960938 9.664063 40.046875 9.664063 C 40.488281 9.664063 40.894531 9.371094 41.015625 8.921875 L 41.53125 6.992188 C 41.675781 6.457031 41.355469 5.910156 40.824219 5.765625 C 40.691406 5.730469 40.554688 5.722656 40.425781 5.742188 Z M 24.125 7.890625 C 23.996094 7.90625 23.867188 7.945313 23.75 8.015625 C 23.269531 8.292969 23.109375 8.902344 23.386719 9.382813 L 24.386719 11.109375 C 24.570313 11.433594 24.90625 11.609375 25.25 11.609375 C 25.421875 11.609375 25.59375 11.570313 25.75 11.480469 C 26.230469 11.203125 26.390625 10.589844 26.113281 10.109375 L 25.113281 8.382813 C 24.90625 8.023438 24.511719 7.839844 24.125 7.890625 Z M 45.875 7.890625 C 45.484375 7.839844 45.089844 8.023438 44.886719 8.382813 L 43.886719 10.109375 C 43.609375 10.589844 43.773438 11.203125 44.25 11.480469 C 44.40625 11.570313 44.578125 11.609375 44.75 11.609375 C 45.09375 11.609375 45.429688 11.433594 45.613281 11.109375 L 46.613281 9.382813 C 46.890625 8.902344 46.730469 8.292969 46.25 8.015625 C 46.128906 7.945313 46 7.90625 45.875 7.890625 Z M 35.035156 14 C 33.894531 13.992188 32.792969 14.367188 31.890625 15.082031 C 30.691406 16.039063 30 17.464844 30 19 C 30 20.570313 30.722656 22.019531 31.996094 22.980469 C 31.980469 23.101563 31.910156 23.179688 31.863281 23.214844 C 31.8125 23.253906 31.707031 23.320313 31.558594 23.292969 L 27.113281 22.402344 C 25.535156 22.085938 23.949219 23.113281 23.597656 24.691406 L 22.824219 28.1875 C 22.671875 28.878906 22.835938 29.585938 23.277344 30.136719 C 24.09375 31.152344 25.796875 31.300781 26.617188 30.203125 C 27.335938 29.246094 28.515625 28.816406 29.699219 29.078125 C 30.773438 29.316406 31.664063 30.199219 31.914063 31.265625 C 32.132813 32.207031 31.933594 33.128906 31.351563 33.859375 C 30.777344 34.585938 29.921875 35 29 35 C 28.054688 35 27.183594 34.558594 26.609375 33.785156 C 25.8125 32.710938 24.101563 32.835938 23.277344 33.863281 C 22.835938 34.414063 22.671875 35.125 22.824219 35.8125 L 23.675781 39.652344 C 23.984375 41.035156 25.1875 42 26.605469 42 L 43 42 C 44.652344 42 46 40.652344 46 39 L 46 25.4375 C 46 24.539063 45.597656 23.691406 44.902344 23.121094 C 44.203125 22.546875 43.296875 22.316406 42.410156 22.5 L 38.441406 23.292969 C 38.292969 23.320313 38.183594 23.253906 38.136719 23.214844 C 38.089844 23.179688 38.019531 23.101563 38 22.980469 C 39.59375 21.78125 40.308594 19.820313 39.871094 17.863281 C 39.460938 16.027344 38.011719 14.5625 36.183594 14.140625 C 35.800781 14.050781 35.417969 14.003906 35.035156 14 Z M 35.035156 16 C 35.265625 16.003906 35.5 16.03125 35.734375 16.085938 C 36.800781 16.335938 37.679688 17.226563 37.921875 18.300781 C 38.1875 19.484375 37.753906 20.664063 36.800781 21.378906 C 36.292969 21.761719 36 22.324219 36 22.921875 L 36 22.929688 C 36 23.644531 36.316406 24.308594 36.867188 24.761719 C 37.417969 25.210938 38.132813 25.398438 38.835938 25.253906 L 42.804688 24.457031 C 43.101563 24.402344 43.402344 24.476563 43.636719 24.667969 C 43.867188 24.855469 44 25.140625 44 25.4375 L 44 39 C 44 39.550781 43.550781 40 43 40 L 26.605469 40 C 26.128906 40 25.730469 39.679688 25.628906 39.21875 L 24.773438 35.375 C 24.746094 35.25 24.800781 35.160156 24.835938 35.113281 C 24.863281 35.082031 24.921875 35.023438 25.023438 35.003906 C 25.980469 36.273438 27.425781 37 29 37 C 30.535156 37 31.960938 36.3125 32.917969 35.109375 C 33.871094 33.90625 34.21875 32.339844 33.859375 30.8125 C 33.4375 28.984375 31.972656 27.539063 30.136719 27.125 C 28.175781 26.6875 26.214844 27.402344 25.078125 29 C 24.945313 29 24.871094 28.929688 24.835938 28.886719 C 24.800781 28.839844 24.746094 28.75 24.773438 28.621094 L 25.550781 25.128906 C 25.667969 24.601563 26.191406 24.257813 26.722656 24.363281 L 31.164063 25.25 C 31.867188 25.394531 32.582031 25.210938 33.128906 24.761719 C 33.683594 24.308594 34 23.640625 34 22.902344 C 34 22.308594 33.714844 21.757813 33.214844 21.390625 C 32.441406 20.816406 32 19.945313 32 19 C 32 18.078125 32.414063 17.222656 33.136719 16.648438 C 33.6875 16.210938 34.34375 15.992188 35.035156 16 Z "></path>
</g>
</svg>