<svg xmlns="http://www.w3.org/2000/svg" xmlns:xlink="http://www.w3.org/1999/xlink" viewBox="0 0 64 64" version="1.1">
<g id="surface1">
<path style=" " d="M 46 0.0546875 C 44.898438 0.0546875 44 0.953125 44 2.054688 L 44 6.054688 C 44 7.15625 44.898438 8.054688 46 8.054688 L 50.542969 8.054688 L 47.222656 11.296875 C 46.90625 11.605469 46.417969 11.664063 46.03125 11.441406 C 42.828125 9.574219 39.175781 8.753906 35.453125 9.0625 C 29.160156 9.59375 23.730469 13.488281 20.964844 18.890625 C 14.816406 21.964844 11 28.121094 11 35 C 11 38.183594 11.851563 41.320313 13.464844 44.070313 C 13.695313 44.464844 13.632813 44.964844 13.3125 45.28125 L 11.109375 47.453125 L 7.171875 43.515625 C 6.414063 42.757813 5.101563 42.757813 4.34375 43.515625 L 1.515625 46.34375 C 1.136719 46.722656 0.929688 47.222656 0.929688 47.757813 C 0.929688 48.292969 1.136719 48.792969 1.515625 49.171875 L 5.40625 53.066406 L 1.054688 57.355469 C 0.671875 57.734375 0.460938 58.234375 0.457031 58.769531 C 0.453125 59.308594 0.664063 59.8125 1.042969 60.191406 L 3.859375 63.011719 C 4.238281 63.386719 4.742188 63.597656 5.273438 63.597656 L 5.28125 63.597656 C 5.820313 63.59375 6.324219 63.382813 6.699219 63 L 10.988281 58.644531 L 14.828125 62.484375 C 15.605469 63.265625 16.878906 63.265625 17.65625 62.484375 L 20.484375 59.65625 C 20.863281 59.277344 21.074219 58.777344 21.074219 58.242188 C 21.074219 57.707031 20.863281 57.207031 20.484375 56.828125 L 16.605469 52.945313 L 18.785156 50.730469 C 19.101563 50.410156 19.597656 50.34375 19.988281 50.570313 C 23.1875 52.429688 26.835938 53.246094 30.542969 52.9375 C 36.855469 52.40625 42.28125 48.511719 45.042969 43.097656 C 51.097656 40.066406 55 33.78125 55 27 C 55 23.855469 54.167969 20.757813 52.601563 18.035156 C 52.375 17.644531 52.433594 17.167969 52.75 16.84375 L 56 13.511719 L 56 18.054688 C 56 19.15625 56.898438 20.054688 58 20.054688 L 62 20.054688 C 63.101563 20.054688 64 19.15625 64 18.054688 L 64 2.054688 C 64 0.953125 63.101563 0.0546875 62 0.0546875 Z M 46 2.054688 L 62 2.054688 L 62 18.054688 L 58 18.054688 L 58 11.054688 C 58 10.648438 57.753906 10.28125 57.375 10.128906 C 57 9.976563 56.566406 10.066406 56.28125 10.359375 L 51.3125 15.449219 C 50.382813 16.402344 50.199219 17.878906 50.871094 19.035156 C 52.261719 21.453125 53 24.207031 53 27 C 53 32.195313 50.421875 37.054688 46.265625 40.03125 C 46.617188 38.839844 46.859375 37.605469 46.953125 36.332031 C 47.015625 35.453125 46.992188 34.589844 46.929688 33.734375 C 48.28125 31.742188 49 29.417969 49 27 C 49 20.382813 43.617188 15 37 15 C 34.382813 15 31.964844 15.851563 29.988281 17.28125 C 29.972656 17.292969 29.953125 17.304688 29.9375 17.320313 C 26.949219 19.503906 25 23.023438 25 27 C 25 33.617188 30.382813 39 37 39 C 37.398438 39 37.796875 38.972656 38.191406 38.933594 C 37.515625 40.503906 36.445313 41.863281 35.109375 42.898438 C 35.097656 42.894531 35.089844 42.890625 35.074219 42.886719 C 26.53125 41.863281 20.371094 34.308594 21.050781 25.695313 C 21.660156 18 27.925781 11.707031 35.621094 11.058594 C 38.933594 10.777344 42.179688 11.511719 45.027344 13.171875 C 46.183594 13.84375 47.660156 13.660156 48.617188 12.726563 L 53.699219 7.773438 C 53.988281 7.488281 54.078125 7.054688 53.925781 6.679688 C 53.773438 6.300781 53.40625 6.054688 53 6.054688 L 46 6.054688 Z M 22.214844 7.070313 C 21.957031 7.070313 21.703125 7.167969 21.503906 7.363281 C 21.113281 7.753906 21.113281 8.386719 21.503906 8.777344 L 22.921875 10.191406 C 23.113281 10.386719 23.371094 10.484375 23.625 10.484375 C 23.882813 10.484375 24.140625 10.386719 24.332031 10.191406 C 24.726563 9.800781 24.726563 9.167969 24.332031 8.777344 L 22.921875 7.363281 C 22.722656 7.167969 22.46875 7.070313 22.214844 7.070313 Z M 18.675781 10.605469 C 18.421875 10.605469 18.167969 10.703125 17.96875 10.898438 C 17.578125 11.289063 17.578125 11.921875 17.96875 12.3125 L 19.386719 13.730469 C 19.578125 13.921875 19.835938 14.019531 20.09375 14.019531 C 20.347656 14.019531 20.605469 13.921875 20.796875 13.730469 C 21.191406 13.339844 21.191406 12.707031 20.796875 12.3125 L 19.386719 10.898438 C 19.1875 10.703125 18.933594 10.605469 18.675781 10.605469 Z M 15.140625 14.140625 C 14.886719 14.140625 14.632813 14.238281 14.4375 14.4375 C 14.042969 14.828125 14.042969 15.457031 14.4375 15.847656 L 15.847656 17.265625 C 16.042969 17.457031 16.300781 17.558594 16.558594 17.558594 C 16.8125 17.558594 17.070313 17.457031 17.265625 17.265625 C 17.65625 16.871094 17.65625 16.242188 17.265625 15.847656 L 15.847656 14.4375 C 15.652344 14.238281 15.398438 14.140625 15.140625 14.140625 Z M 37 17 C 42.515625 17 47 21.484375 47 27 C 47 28.195313 46.785156 29.359375 46.378906 30.457031 C 44.734375 24.277344 39.863281 19.28125 33.582031 17.613281 C 34.652344 17.222656 35.800781 17 37 17 Z M 11.605469 17.675781 C 11.347656 17.675781 11.09375 17.773438 10.898438 17.96875 C 10.507813 18.363281 10.507813 18.996094 10.898438 19.386719 L 12.3125 20.796875 C 12.507813 20.992188 12.765625 21.09375 13.019531 21.09375 C 13.277344 21.09375 13.535156 20.992188 13.730469 20.796875 C 14.121094 20.40625 14.121094 19.773438 13.730469 19.386719 L 12.3125 17.96875 C 12.117188 17.773438 11.863281 17.675781 11.605469 17.675781 Z M 30.863281 19.121094 C 39.273438 20.101563 45.570313 27.671875 44.957031 36.1875 C 44.398438 43.949219 38.128906 50.289063 30.375 50.941406 C 27.078125 51.21875 23.832031 50.492188 20.992188 48.839844 C 19.8125 48.152344 18.316406 48.351563 17.359375 49.324219 L 14.480469 52.246094 C 14.09375 52.636719 14.097656 53.269531 14.484375 53.65625 L 19.070313 58.238281 L 16.242188 61.070313 L 11.6875 56.515625 C 11.5 56.328125 11.246094 56.222656 10.984375 56.222656 L 10.980469 56.222656 C 10.710938 56.226563 10.457031 56.332031 10.269531 56.523438 L 5.273438 61.59375 L 2.457031 58.777344 L 7.53125 53.78125 C 7.71875 53.59375 7.828125 53.339844 7.828125 53.074219 C 7.828125 52.808594 7.722656 52.550781 7.535156 52.363281 L 2.929688 47.753906 L 5.757813 44.925781 L 10.394531 49.566406 C 10.785156 49.957031 11.414063 49.957031 11.808594 49.574219 L 14.714844 46.707031 C 15.691406 45.746094 15.886719 44.242188 15.191406 43.058594 C 13.757813 40.617188 13 37.828125 13 35 C 13 29.722656 15.53125 24.925781 19.734375 21.953125 C 19.394531 23.109375 19.15625 24.304688 19.058594 25.535156 C 18.984375 26.464844 19 27.378906 19.0625 28.277344 C 17.714844 30.265625 17 32.585938 17 35 C 17 41.617188 22.382813 47 29 47 C 35.617188 47 41 41.617188 41 35 C 41 28.382813 35.617188 23 29 23 C 28.601563 23 28.203125 23.03125 27.808594 23.070313 C 28.476563 21.507813 29.539063 20.152344 30.863281 19.121094 Z M 8.070313 21.214844 C 7.816406 21.214844 7.558594 21.308594 7.363281 21.503906 C 6.972656 21.898438 6.972656 22.527344 7.363281 22.921875 L 8.777344 24.332031 C 8.972656 24.527344 9.226563 24.625 9.484375 24.625 C 9.742188 24.625 9.996094 24.527344 10.191406 24.332031 C 10.582031 23.941406 10.582031 23.3125 10.191406 22.921875 L 8.777344 21.503906 C 8.582031 21.308594 8.324219 21.214844 8.070313 21.214844 Z M 29 25 C 34.515625 25 39 29.484375 39 35 C 39 35.621094 38.933594 36.226563 38.828125 36.816406 C 38.226563 36.929688 37.613281 37 37 37 C 31.484375 37 27 32.515625 27 27 C 27 26.378906 27.066406 25.773438 27.171875 25.183594 C 27.777344 25.074219 28.386719 25 29 25 Z M 19.609375 31.578125 C 21.226563 37.773438 26.054688 42.730469 32.40625 44.390625 C 31.339844 44.777344 30.195313 45 29 45 C 23.484375 45 19 40.515625 19 35 C 19 33.816406 19.210938 32.664063 19.609375 31.578125 Z M 54.214844 39.070313 C 53.957031 39.070313 53.703125 39.167969 53.503906 39.363281 C 53.113281 39.753906 53.113281 40.386719 53.503906 40.777344 L 54.921875 42.191406 C 55.113281 42.386719 55.371094 42.484375 55.625 42.484375 C 55.882813 42.484375 56.140625 42.386719 56.332031 42.191406 C 56.726563 41.800781 56.726563 41.167969 56.332031 40.777344 L 54.921875 39.363281 C 54.722656 39.167969 54.46875 39.070313 54.214844 39.070313 Z M 50.675781 42.605469 C 50.421875 42.605469 50.167969 42.703125 49.96875 42.898438 C 49.578125 43.289063 49.578125 43.921875 49.96875 44.3125 L 51.386719 45.730469 C 51.578125 45.921875 51.835938 46.019531 52.09375 46.019531 C 52.347656 46.019531 52.605469 45.921875 52.796875 45.730469 C 53.191406 45.339844 53.191406 44.707031 52.796875 44.3125 L 51.386719 42.898438 C 51.1875 42.703125 50.933594 42.605469 50.675781 42.605469 Z M 47.140625 46.140625 C 46.886719 46.140625 46.632813 46.238281 46.4375 46.4375 C 46.042969 46.828125 46.042969 47.457031 46.4375 47.847656 L 47.847656 49.265625 C 48.042969 49.457031 48.300781 49.558594 48.558594 49.558594 C 48.8125 49.558594 49.070313 49.457031 49.265625 49.265625 C 49.65625 48.871094 49.65625 48.242188 49.265625 47.847656 L 47.847656 46.4375 C 47.652344 46.238281 47.398438 46.140625 47.140625 46.140625 Z M 43.605469 49.675781 C 43.347656 49.675781 43.09375 49.773438 42.898438 49.96875 C 42.507813 50.363281 42.507813 50.996094 42.898438 51.386719 L 44.3125 52.796875 C 44.507813 52.992188 44.765625 53.09375 45.019531 53.09375 C 45.277344 53.09375 45.535156 52.992188 45.730469 52.796875 C 46.121094 52.40625 46.121094 51.773438 45.730469 51.386719 L 44.3125 49.96875 C 44.117188 49.773438 43.863281 49.675781 43.605469 49.675781 Z M 40.070313 53.214844 C 39.816406 53.214844 39.558594 53.308594 39.363281 53.503906 C 38.972656 53.898438 38.972656 54.527344 39.363281 54.921875 L 40.777344 56.332031 C 40.972656 56.527344 41.226563 56.625 41.484375 56.625 C 41.742188 56.625 41.996094 56.527344 42.191406 56.332031 C 42.582031 55.941406 42.582031 55.3125 42.191406 54.921875 L 40.777344 53.503906 C 40.582031 53.308594 40.324219 53.214844 40.070313 53.214844 Z "></path>
</g>
</svg>