<svg xmlns="http://www.w3.org/2000/svg" xmlns:xlink="http://www.w3.org/1999/xlink" viewBox="0 0 64 64" version="1.1">
<g id="surface1">
<path style=" " d="M 18.441406 6.007813 C 14.203125 6.007813 9.964844 7.621094 6.734375 10.847656 C 3.609375 13.976563 1.886719 18.132813 1.886719 22.558594 C 1.886719 26.980469 3.609375 31.136719 6.734375 34.265625 L 26.453125 53.984375 C 26.476563 54.011719 26.488281 54.042969 26.515625 54.070313 L 27.929688 55.484375 C 27.957031 55.511719 27.992188 55.523438 28.019531 55.546875 L 29.832031 57.359375 C 30.398438 57.925781 31.152344 58.234375 31.953125 58.234375 C 32.753906 58.234375 33.507813 57.925781 34.074219 57.359375 L 57.152344 34.265625 C 60.277344 31.136719 62 26.980469 62 22.558594 C 62 18.132813 60.277344 13.976563 57.152344 10.847656 C 50.695313 4.394531 40.191406 4.394531 33.734375 10.847656 L 31.941406 12.640625 L 30.152344 10.847656 C 26.921875 7.621094 22.683594 6.007813 18.441406 6.007813 Z M 18.441406 8.007813 C 22.171875 8.007813 25.898438 9.425781 28.734375 12.265625 L 30.53125 14.058594 L 28.292969 16.292969 C 27.902344 16.683594 27.902344 17.316406 28.292969 17.707031 C 28.488281 17.902344 28.742188 18 29 18 C 29.257813 18 29.511719 17.902344 29.707031 17.707031 L 33.769531 13.644531 L 35.152344 12.265625 C 40.828125 6.589844 50.058594 6.589844 55.734375 12.265625 C 58.484375 15.011719 60 18.667969 60 22.558594 C 60 26.445313 58.484375 30.101563 55.734375 32.847656 L 32.660156 55.941406 C 32.28125 56.320313 31.625 56.324219 31.246094 55.941406 L 8.148438 32.847656 C 5.402344 30.101563 3.886719 26.445313 3.886719 22.558594 C 3.886719 18.667969 5.402344 15.015625 8.148438 12.265625 C 10.988281 9.425781 14.714844 8.007813 18.441406 8.007813 Z M 26 19 C 25.746094 19 25.488281 19.097656 25.292969 19.292969 L 23.292969 21.292969 C 22.902344 21.683594 22.902344 22.316406 23.292969 22.707031 C 23.488281 22.902344 23.742188 23 24 23 C 24.257813 23 24.511719 22.902344 24.707031 22.707031 L 26.707031 20.707031 C 27.097656 20.316406 27.097656 19.683594 26.707031 19.292969 C 26.511719 19.097656 26.253906 19 26 19 Z M 51.96875 27.613281 C 51.714844 27.613281 51.460938 27.710938 51.265625 27.90625 C 50.871094 28.300781 50.871094 28.929688 51.265625 29.324219 L 52.675781 30.734375 C 52.871094 30.929688 53.128906 31.03125 53.386719 31.03125 C 53.640625 31.03125 53.898438 30.929688 54.09375 30.734375 C 54.484375 30.34375 54.484375 29.714844 54.09375 29.324219 L 52.675781 27.90625 C 52.480469 27.710938 52.226563 27.613281 51.96875 27.613281 Z M 48.4375 31.152344 C 48.179688 31.152344 47.925781 31.25 47.730469 31.441406 C 47.335938 31.832031 47.335938 32.464844 47.730469 32.859375 L 49.140625 34.269531 C 49.335938 34.464844 49.59375 34.5625 49.847656 34.5625 C 50.105469 34.5625 50.363281 34.464844 50.558594 34.269531 C 50.949219 33.878906 50.949219 33.246094 50.558594 32.855469 L 49.140625 31.441406 C 48.945313 31.25 48.691406 31.152344 48.4375 31.152344 Z M 44.898438 34.6875 C 44.644531 34.6875 44.386719 34.78125 44.191406 34.980469 C 43.800781 35.371094 43.800781 36 44.191406 36.390625 L 45.605469 37.808594 C 45.800781 38 46.054688 38.097656 46.3125 38.097656 C 46.570313 38.097656 46.824219 38 47.019531 37.808594 C 47.410156 37.414063 47.410156 36.785156 47.019531 36.390625 L 45.605469 34.980469 C 45.410156 34.78125 45.152344 34.6875 44.898438 34.6875 Z M 41.363281 38.222656 C 41.109375 38.222656 40.851563 38.320313 40.65625 38.515625 C 40.265625 38.90625 40.265625 39.539063 40.65625 39.929688 L 42.070313 41.34375 C 42.265625 41.539063 42.519531 41.636719 42.777344 41.636719 C 43.035156 41.636719 43.289063 41.539063 43.484375 41.34375 C 43.875 40.953125 43.875 40.320313 43.484375 39.929688 L 42.070313 38.515625 C 41.875 38.320313 41.617188 38.222656 41.363281 38.222656 Z M 37.828125 41.753906 C 37.574219 41.753906 37.316406 41.855469 37.121094 42.050781 C 36.730469 42.441406 36.730469 43.074219 37.121094 43.464844 L 38.535156 44.878906 C 38.730469 45.074219 38.984375 45.171875 39.242188 45.171875 C 39.5 45.171875 39.753906 45.074219 39.949219 44.878906 C 40.339844 44.488281 40.339844 43.855469 39.949219 43.464844 L 38.535156 42.050781 C 38.339844 41.855469 38.082031 41.753906 37.828125 41.753906 Z M 34.292969 45.292969 C 34.039063 45.292969 33.78125 45.390625 33.585938 45.585938 C 33.195313 45.976563 33.195313 46.609375 33.585938 47 L 35 48.414063 C 35.195313 48.609375 35.449219 48.707031 35.707031 48.707031 C 35.964844 48.707031 36.21875 48.609375 36.414063 48.414063 C 36.804688 48.023438 36.804688 47.390625 36.414063 47 L 35 45.585938 C 34.804688 45.390625 34.546875 45.292969 34.292969 45.292969 Z M 30.757813 48.828125 C 30.503906 48.828125 30.246094 48.925781 30.050781 49.121094 C 29.660156 49.511719 29.660156 50.144531 30.050781 50.535156 L 31.464844 51.949219 C 31.660156 52.144531 31.914063 52.242188 32.171875 52.242188 C 32.429688 52.242188 32.683594 52.144531 32.878906 51.949219 C 33.269531 51.558594 33.269531 50.925781 32.878906 50.535156 L 31.464844 49.121094 C 31.269531 48.925781 31.011719 48.828125 30.757813 48.828125 Z "></path>
</g>
</svg>