<svg xmlns="http://www.w3.org/2000/svg" xmlns:xlink="http://www.w3.org/1999/xlink" viewBox="0 0 64 64" version="1.1">
<g id="surface1">
<path style=" " d="M 32 4 C 29.796875 4 26.652344 4.6875 24.691406 6.007813 C 20.96875 6.140625 18.417969 8.757813 18.003906 12.902344 C 17.746094 15.460938 17.980469 17.292969 18.136719 18.503906 C 18.191406 18.925781 18.25 19.402344 18.230469 19.542969 C 18.199219 19.726563 18.167969 19.914063 18.140625 20.105469 C 17.976563 20.113281 17.828125 20.136719 17.703125 20.171875 C 16.804688 20.410156 16.171875 21.214844 15.921875 22.433594 C 15.722656 23.410156 15.785156 24.597656 16.101563 25.777344 C 16.636719 27.773438 17.757813 29.273438 18.984375 29.734375 C 19.582031 31.5625 20.449219 33.378906 21.515625 35.035156 L 8.253906 41.378906 C 4.453125 43.195313 2 47.089844 2 51.300781 L 2 59 C 2 60.652344 3.347656 62 5 62 L 59 62 C 60.652344 62 62 60.652344 62 59 L 62 51.300781 C 62 47.089844 59.546875 43.195313 55.746094 41.378906 L 42.480469 35.035156 C 43.550781 33.378906 44.414063 31.5625 45.015625 29.734375 C 46.238281 29.273438 47.363281 27.773438 47.894531 25.777344 C 48.210938 24.597656 48.277344 23.410156 48.078125 22.433594 C 47.828125 21.214844 47.195313 20.410156 46.292969 20.171875 C 46.171875 20.136719 46.023438 20.113281 45.859375 20.105469 C 45.71875 19.035156 45.449219 18.035156 44.941406 16.667969 C 44.929688 16.628906 44.917969 16.59375 44.90625 16.5625 C 45.257813 16.589844 45.824219 16.734375 46.285156 16.921875 C 46.632813 17.066406 47.027344 17.003906 47.3125 16.765625 C 47.59375 16.527344 47.726563 16.152344 47.644531 15.785156 C 46.035156 8.40625 40.558594 4 33 4 Z M 32 6 L 33 6 C 39.070313 6 43.453125 9.101563 45.25 14.582031 C 44.5625 14.503906 43.84375 14.589844 43.355469 15.0625 C 42.972656 15.425781 42.613281 16.125 43.066406 17.359375 C 43.683594 19.035156 43.90625 20.027344 43.96875 21.433594 C 43.988281 21.792969 44.195313 22.113281 44.515625 22.277344 C 44.832031 22.4375 45.210938 22.421875 45.515625 22.222656 C 45.675781 22.121094 45.761719 22.105469 45.78125 22.105469 C 45.839844 22.128906 46.015625 22.335938 46.121094 22.832031 C 46.257813 23.503906 46.199219 24.386719 45.96875 25.261719 C 45.472656 27.101563 44.53125 27.878906 44.234375 27.878906 C 43.792969 27.878906 43.402344 28.171875 43.277344 28.59375 C 41.589844 34.261719 37.175781 40 32 40 C 26.824219 40 22.410156 34.261719 20.726563 28.59375 C 20.597656 28.171875 20.210938 27.878906 19.765625 27.878906 C 19.472656 27.878906 18.527344 27.101563 18.035156 25.261719 C 17.800781 24.386719 17.746094 23.503906 17.882813 22.832031 C 17.988281 22.324219 18.171875 22.117188 18.21875 22.105469 C 18.21875 22.105469 18.304688 22.105469 18.488281 22.222656 C 18.789063 22.417969 19.171875 22.441406 19.488281 22.277344 C 19.808594 22.113281 20.015625 21.792969 20.03125 21.433594 C 20.054688 20.910156 20.113281 20.390625 20.203125 19.890625 C 20.277344 19.460938 20.21875 18.980469 20.125 18.25 C 19.980469 17.128906 19.761719 15.433594 19.996094 13.097656 C 20.316406 9.90625 22.1875 8 25.019531 8 C 25.234375 8 25.445313 7.929688 25.621094 7.800781 C 26.988281 6.773438 29.730469 6 32 6 Z M 26.527344 12.125 C 25.8125 12.0625 25.09375 12.390625 24.683594 13.015625 L 23.078125 15.449219 C 22.773438 15.910156 22.902344 16.53125 23.363281 16.835938 C 23.53125 16.945313 23.722656 17 23.910156 17 C 24.238281 17 24.554688 16.84375 24.75 16.550781 L 26.355469 14.117188 L 27.914063 14.878906 C 30.761719 16.269531 33.941406 17 37.109375 17 L 39.667969 17 C 40.222656 17 40.667969 16.554688 40.667969 16 C 40.667969 15.445313 40.222656 15 39.667969 15 L 37.109375 15 C 34.246094 15 31.367188 14.335938 28.792969 13.078125 L 27.230469 12.316406 C 27.003906 12.207031 26.765625 12.144531 26.527344 12.125 Z M 22.703125 36.6875 C 25.160156 39.789063 28.402344 42 32 42 C 35.597656 42 38.839844 39.789063 41.296875 36.6875 L 41.941406 36.996094 L 37.09375 50.945313 L 35.078125 46.921875 L 35.949219 44.316406 C 36.125 43.792969 35.839844 43.226563 35.316406 43.050781 C 34.789063 42.875 34.226563 43.160156 34.050781 43.683594 L 33.28125 46 L 30.71875 46 L 29.949219 43.683594 C 29.773438 43.160156 29.214844 42.875 28.683594 43.050781 C 28.160156 43.226563 27.875 43.792969 28.050781 44.316406 L 28.921875 46.921875 L 26.90625 50.945313 L 22.058594 36.996094 Z M 20.242188 37.863281 L 27.941406 60 L 25.5 60 L 17.25 49 L 19.800781 45.597656 C 19.960938 45.386719 20.027344 45.121094 19.988281 44.859375 L 19.070313 38.421875 Z M 43.757813 37.863281 L 44.929688 38.421875 L 44.011719 44.859375 C 43.972656 45.121094 44.039063 45.386719 44.199219 45.597656 L 46.730469 48.972656 L 37.625 60 L 36.058594 60 Z M 17.179688 39.328125 L 17.953125 44.734375 L 15.199219 48.402344 C 14.933594 48.753906 14.933594 49.246094 15.199219 49.597656 L 23 60 L 5 60 C 4.449219 60 4 59.550781 4 59 L 4 51.300781 C 4 47.859375 6.007813 44.667969 9.117188 43.183594 Z M 46.820313 39.328125 L 54.882813 43.183594 C 57.992188 44.667969 60 47.855469 60 51.300781 L 60 59 C 60 59.550781 59.550781 60 59 60 L 40.292969 60 L 48.773438 49.632813 C 49.0625 49.277344 49.074219 48.769531 48.796875 48.402344 L 46.046875 44.734375 Z M 30.617188 48 L 33.382813 48 L 36.105469 53.449219 C 36.125 53.488281 36.15625 53.519531 36.183594 53.558594 L 34.058594 59.671875 C 34.019531 59.78125 34.011719 59.890625 34.011719 60 L 29.988281 60 C 29.988281 59.890625 29.984375 59.78125 29.945313 59.671875 L 27.8125 53.546875 C 27.839844 53.511719 27.875 53.488281 27.894531 53.449219 Z M 7 54 C 6.445313 54 6 54.445313 6 55 L 6 57 C 6 57.554688 6.445313 58 7 58 C 7.554688 58 8 57.554688 8 57 L 8 55 C 8 54.445313 7.554688 54 7 54 Z M 12 54 C 11.445313 54 11 54.445313 11 55 L 11 57 C 11 57.554688 11.445313 58 12 58 C 12.554688 58 13 57.554688 13 57 L 13 55 C 13 54.445313 12.554688 54 12 54 Z M 17 54 C 16.445313 54 16 54.445313 16 55 L 16 57 C 16 57.554688 16.445313 58 17 58 C 17.554688 58 18 57.554688 18 57 L 18 55 C 18 54.445313 17.554688 54 17 54 Z M 47 54 C 46.445313 54 46 54.445313 46 55 L 46 57 C 46 57.554688 46.445313 58 47 58 C 47.554688 58 48 57.554688 48 57 L 48 55 C 48 54.445313 47.554688 54 47 54 Z M 52 54 C 51.445313 54 51 54.445313 51 55 L 51 57 C 51 57.554688 51.445313 58 52 58 C 52.554688 58 53 57.554688 53 57 L 53 55 C 53 54.445313 52.554688 54 52 54 Z M 57 54 C 56.445313 54 56 54.445313 56 55 L 56 57 C 56 57.554688 56.445313 58 57 58 C 57.554688 58 58 57.554688 58 57 L 58 55 C 58 54.445313 57.554688 54 57 54 Z "></path>
</g>
</svg>