<svg xmlns="http://www.w3.org/2000/svg" xmlns:xlink="http://www.w3.org/1999/xlink" viewBox="0 0 64 64" version="1.1">
<g id="surface1">
<path style=" " d="M 32 2.140625 C 14.355469 2.140625 0 13.621094 0 27.730469 C 0 36.601563 5.558594 44.648438 14.90625 49.367188 C 14.734375 51.714844 14.097656 55.625 11.902344 59.28125 C 11.695313 59.625 11.714844 60.058594 11.949219 60.382813 C 12.136719 60.648438 12.441406 60.796875 12.761719 60.796875 C 12.832031 60.796875 12.90625 60.789063 12.976563 60.773438 C 20.546875 59.089844 24.097656 54.773438 25.378906 52.761719 C 27.566406 53.128906 29.789063 53.3125 32 53.3125 C 49.648438 53.3125 64 41.835938 64 27.730469 C 64 13.621094 49.644531 2.140625 32 2.140625 Z M 32 4.140625 C 48.542969 4.140625 62 14.722656 62 27.730469 C 62 40.734375 48.542969 51.3125 32 51.3125 C 29.679688 51.3125 27.34375 51.097656 25.058594 50.671875 C 24.632813 50.589844 24.203125 50.792969 23.996094 51.171875 C 23.324219 52.402344 20.800781 56.230469 14.714844 58.226563 C 16.425781 54.492188 16.851563 50.835938 16.941406 48.808594 C 16.960938 48.410156 16.738281 48.035156 16.378906 47.859375 C 7.375 43.53125 2 36.003906 2 27.730469 C 2 14.722656 15.457031 4.140625 32 4.140625 Z M 32 7.96875 C 18.238281 7.96875 7.042969 16.941406 7.042969 27.96875 C 7.042969 29.316406 7.210938 30.660156 7.539063 31.96875 C 7.652344 32.421875 8.0625 32.71875 8.507813 32.71875 C 8.589844 32.71875 8.675781 32.710938 8.757813 32.691406 C 9.292969 32.554688 9.617188 32.011719 9.480469 31.476563 C 9.191406 30.328125 9.042969 29.148438 9.042969 27.96875 C 9.042969 18.046875 19.339844 9.96875 32 9.96875 C 36.066406 9.96875 40.0625 10.816406 43.554688 12.417969 C 44.054688 12.648438 44.652344 12.429688 44.878906 11.925781 C 45.109375 11.421875 44.890625 10.832031 44.390625 10.597656 C 40.636719 8.878906 36.351563 7.96875 32 7.96875 Z M 48.054688 12.988281 C 47.800781 13.03125 47.566406 13.164063 47.402344 13.390625 C 47.078125 13.835938 47.175781 14.460938 47.621094 14.785156 C 48.515625 15.441406 49.351563 16.152344 50.101563 16.90625 C 50.296875 17.105469 50.554688 17.203125 50.8125 17.203125 C 51.066406 17.203125 51.320313 17.105469 51.515625 16.910156 C 51.910156 16.523438 51.910156 15.886719 51.519531 15.496094 C 50.695313 14.667969 49.78125 13.886719 48.796875 13.171875 C 48.574219 13.007813 48.308594 12.949219 48.054688 12.988281 Z M 26.390625 16.96875 C 25.960938 16.96875 25.578125 17.246094 25.441406 17.652344 L 20.042969 33.652344 C 19.863281 34.171875 20.144531 34.742188 20.667969 34.917969 C 21.1875 35.097656 21.757813 34.8125 21.9375 34.289063 L 23.738281 28.9375 C 23.789063 28.949219 23.835938 28.96875 23.890625 28.96875 L 28.890625 28.96875 C 28.941406 28.96875 28.984375 28.949219 29.035156 28.9375 L 30.84375 34.289063 C 30.980469 34.707031 31.371094 34.96875 31.785156 34.96875 C 31.894531 34.96875 32 34.953125 32.109375 34.917969 C 32.628906 34.742188 32.910156 34.171875 32.734375 33.652344 L 27.335938 17.652344 C 27.199219 17.246094 26.816406 16.96875 26.390625 16.96875 Z M 53.476563 18.78125 C 53.347656 18.800781 53.21875 18.847656 53.101563 18.917969 C 52.628906 19.203125 52.476563 19.816406 52.765625 20.289063 C 54.21875 22.699219 54.957031 25.285156 54.957031 27.96875 C 54.957031 36.164063 47.894531 43.328125 37.789063 45.390625 C 37.25 45.5 36.898438 46.03125 37.011719 46.570313 C 37.105469 47.042969 37.523438 47.371094 37.988281 47.371094 C 38.054688 47.371094 38.121094 47.367188 38.1875 47.351563 C 49.238281 45.09375 56.957031 37.125 56.957031 27.96875 C 56.957031 24.914063 56.121094 21.984375 54.472656 19.253906 C 54.261719 18.902344 53.863281 18.726563 53.476563 18.78125 Z M 38.988281 20.96875 C 38.4375 20.96875 37.988281 21.417969 37.988281 21.96875 L 37.988281 24.96875 L 32.988281 24.96875 C 32.4375 24.96875 31.988281 25.417969 31.988281 25.96875 C 31.988281 26.523438 32.4375 26.96875 32.988281 26.96875 L 41.988281 26.96875 L 41.988281 27.96875 C 41.988281 30.402344 41.015625 32.605469 39.441406 34.226563 C 38.535156 33.046875 37.988281 31.574219 37.988281 29.96875 C 37.988281 29.417969 37.539063 28.96875 36.988281 28.96875 C 36.4375 28.96875 35.988281 29.417969 35.988281 29.96875 C 35.988281 32.054688 36.707031 33.972656 37.902344 35.5 C 36.488281 36.425781 34.800781 36.96875 32.988281 36.96875 C 32.4375 36.96875 31.988281 37.417969 31.988281 37.96875 C 31.988281 38.523438 32.4375 38.96875 32.988281 38.96875 C 35.34375 38.96875 37.527344 38.21875 39.316406 36.953125 C 40.867188 38.210938 42.839844 38.96875 44.988281 38.96875 C 45.539063 38.96875 45.988281 38.523438 45.988281 37.96875 C 45.988281 37.417969 45.539063 36.96875 44.988281 36.96875 C 43.449219 36.96875 42.03125 36.464844 40.875 35.621094 C 42.796875 33.640625 43.988281 30.945313 43.988281 27.96875 L 43.988281 26.96875 L 46.988281 26.96875 C 47.539063 26.96875 47.988281 26.523438 47.988281 25.96875 C 47.988281 25.417969 47.539063 24.96875 46.988281 24.96875 L 39.988281 24.96875 L 39.988281 21.96875 C 39.988281 21.417969 39.539063 20.96875 38.988281 20.96875 Z M 26.390625 21.097656 L 28.371094 26.96875 L 24.40625 26.96875 Z M 12.945313 34.78125 C 12.695313 34.738281 12.421875 34.789063 12.199219 34.945313 L 10.558594 36.09375 C 10.105469 36.40625 9.996094 37.03125 10.3125 37.484375 C 10.507813 37.761719 10.816406 37.910156 11.132813 37.910156 C 11.332031 37.910156 11.527344 37.851563 11.703125 37.730469 L 13.34375 36.582031 C 13.796875 36.269531 13.90625 35.644531 13.589844 35.191406 C 13.433594 34.964844 13.195313 34.824219 12.945313 34.78125 Z M 16.386719 38.8125 C 16.128906 38.835938 15.882813 38.957031 15.703125 39.167969 L 14.417969 40.699219 C 14.0625 41.121094 14.117188 41.75 14.542969 42.109375 C 14.726563 42.265625 14.957031 42.34375 15.183594 42.34375 C 15.46875 42.34375 15.75 42.21875 15.949219 41.984375 L 17.234375 40.453125 C 17.589844 40.03125 17.535156 39.402344 17.113281 39.046875 C 16.902344 38.867188 16.640625 38.792969 16.386719 38.8125 Z M 21.128906 41.761719 C 20.738281 41.746094 20.359375 41.960938 20.1875 42.335938 L 19.339844 44.148438 C 19.105469 44.648438 19.320313 45.242188 19.820313 45.476563 C 19.957031 45.539063 20.101563 45.570313 20.246094 45.570313 C 20.621094 45.570313 20.980469 45.359375 21.152344 44.996094 L 21.996094 43.183594 C 22.230469 42.683594 22.015625 42.085938 21.515625 41.855469 C 21.390625 41.796875 21.257813 41.765625 21.128906 41.761719 Z M 26.492188 43.425781 C 25.945313 43.332031 25.429688 43.695313 25.332031 44.238281 L 24.984375 46.207031 C 24.886719 46.75 25.253906 47.269531 25.796875 47.363281 C 25.855469 47.375 25.914063 47.378906 25.96875 47.378906 C 26.445313 47.378906 26.867188 47.039063 26.953125 46.554688 L 27.304688 44.585938 C 27.402344 44.042969 27.035156 43.523438 26.492188 43.425781 Z M 31.710938 43.660156 C 31.160156 43.707031 30.753906 44.191406 30.800781 44.742188 L 30.972656 46.734375 C 31.019531 47.253906 31.453125 47.648438 31.96875 47.648438 C 31.996094 47.648438 32.027344 47.648438 32.054688 47.644531 C 32.605469 47.597656 33.011719 47.113281 32.964844 46.5625 L 32.792969 44.570313 C 32.746094 44.019531 32.25 43.597656 31.710938 43.660156 Z "></path>
</g>
</svg>