<svg xmlns="http://www.w3.org/2000/svg" xmlns:xlink="http://www.w3.org/1999/xlink" viewBox="0 0 64 64" version="1.1">
<g id="surface1">
<path style=" " d="M 32 2 C 19.867188 2 10 11.867188 10 24 C 10 38.222656 30.394531 60.722656 31.261719 61.671875 C 31.449219 61.882813 31.71875 62 32 62 C 32.28125 62 32.550781 61.882813 32.738281 61.671875 C 33.605469 60.722656 54 38.222656 54 24 C 54 11.867188 44.132813 2 32 2 Z M 32 4 C 43.027344 4 52 12.972656 52 24 C 52 35.984375 35.699219 55.273438 32 59.496094 C 28.300781 55.273438 12 35.984375 12 24 C 12 12.972656 20.972656 4 32 4 Z M 18.585938 14.015625 C 18.335938 14.066406 18.101563 14.210938 17.945313 14.4375 C 16.019531 17.265625 15 20.570313 15 24 C 15 27.429688 16.019531 30.734375 17.949219 33.5625 C 18.140625 33.847656 18.453125 34 18.773438 34 C 18.96875 34 19.164063 33.945313 19.335938 33.828125 C 19.792969 33.515625 19.910156 32.890625 19.597656 32.4375 C 17.898438 29.941406 17 27.023438 17 24 C 17 20.976563 17.898438 18.054688 19.597656 15.5625 C 19.910156 15.105469 19.792969 14.484375 19.335938 14.171875 C 19.105469 14.019531 18.835938 13.96875 18.585938 14.015625 Z M 45.03125 14.019531 C 44.902344 14.046875 44.777344 14.097656 44.660156 14.171875 C 44.207031 14.484375 44.089844 15.109375 44.402344 15.5625 C 46.101563 18.058594 47 20.976563 47 24 C 47 27.023438 46.101563 29.945313 44.402344 32.4375 C 44.089844 32.894531 44.207031 33.515625 44.664063 33.828125 C 44.835938 33.941406 45.03125 34 45.226563 34 C 45.546875 34 45.859375 33.847656 46.050781 33.5625 C 47.980469 30.734375 49 27.429688 49 24 C 49 20.570313 47.980469 17.265625 46.050781 14.4375 C 45.820313 14.097656 45.410156 13.941406 45.03125 14.019531 Z M 30.972656 15.027344 C 29.949219 15.140625 28.957031 15.433594 28.019531 15.894531 C 23.570313 18.085938 21.726563 23.488281 23.917969 27.941406 C 24.976563 30.097656 26.8125 31.714844 29.089844 32.488281 C 30.042969 32.8125 31.023438 32.972656 32 32.972656 C 33.359375 32.972656 34.710938 32.664063 35.964844 32.046875 C 39.863281 30.128906 41.839844 25.707031 40.65625 21.53125 C 40.507813 21 39.957031 20.695313 39.421875 20.84375 C 38.894531 20.992188 38.582031 21.546875 38.734375 22.078125 C 39.648438 25.320313 38.113281 28.761719 35.082031 30.25 C 31.617188 31.953125 27.414063 30.523438 25.710938 27.058594 C 24.007813 23.59375 25.441406 19.390625 28.90625 17.6875 C 29.632813 17.332031 30.402344 17.105469 31.199219 17.015625 C 31.75 16.953125 32.140625 16.453125 32.078125 15.90625 C 32.019531 15.355469 31.511719 14.960938 30.972656 15.027344 Z M 34.917969 15.53125 C 34.527344 15.539063 34.160156 15.777344 34.007813 16.164063 C 33.804688 16.679688 34.058594 17.261719 34.570313 17.464844 C 35.425781 17.800781 36.191406 18.292969 36.84375 18.921875 C 37.039063 19.109375 37.289063 19.203125 37.539063 19.203125 C 37.800781 19.203125 38.0625 19.101563 38.261719 18.894531 C 38.644531 18.5 38.628906 17.867188 38.234375 17.484375 C 37.386719 16.667969 36.402344 16.035156 35.308594 15.601563 C 35.179688 15.550781 35.046875 15.527344 34.917969 15.53125 Z M 32 19 C 29.242188 19 27 21.242188 27 24 C 27 26.757813 29.242188 29 32 29 C 34.757813 29 37 26.757813 37 24 C 37 21.242188 34.757813 19 32 19 Z M 32 21 C 33.652344 21 35 22.347656 35 24 C 35 25.652344 33.652344 27 32 27 C 30.347656 27 29 25.652344 29 24 C 29 22.347656 30.347656 21 32 21 Z "></path>
</g>
</svg>