<svg xmlns="http://www.w3.org/2000/svg" xmlns:xlink="http://www.w3.org/1999/xlink" viewBox="0 0 64 64" version="1.1">
<g id="surface1">
<path style=" " d="M 31 2 C 15.011719 2 2 15.011719 2 31 C 2 46.988281 15.011719 60 31 60 C 46.988281 60 60 46.988281 60 31 C 60 15.011719 46.988281 2 31 2 Z M 31 4 C 45.886719 4 58 16.113281 58 31 C 58 45.886719 45.886719 58 31 58 C 16.113281 58 4 45.886719 4 31 C 4 16.113281 16.113281 4 31 4 Z M 30.5625 8.007813 C 24.671875 8.125 18.960938 10.507813 14.734375 14.734375 C 5.769531 23.703125 5.769531 38.292969 14.734375 47.261719 C 14.929688 47.457031 15.1875 47.554688 15.441406 47.554688 C 15.699219 47.554688 15.957031 47.457031 16.152344 47.261719 C 16.542969 46.871094 16.542969 46.238281 16.152344 45.847656 C 7.960938 37.660156 7.964844 24.339844 16.152344 16.152344 C 20.898438 11.402344 27.699219 9.203125 34.339844 10.265625 C 34.882813 10.355469 35.394531 9.980469 35.484375 9.4375 C 35.574219 8.890625 35.199219 8.375 34.65625 8.289063 C 33.289063 8.070313 31.921875 7.976563 30.5625 8.007813 Z M 38.65625 9.386719 C 38.269531 9.402344 37.90625 9.648438 37.765625 10.035156 C 37.570313 10.554688 37.832031 11.128906 38.351563 11.324219 C 39.0625 11.589844 39.765625 11.894531 40.453125 12.238281 C 40.59375 12.3125 40.746094 12.347656 40.898438 12.347656 C 41.261719 12.347656 41.617188 12.148438 41.792969 11.796875 C 42.042969 11.308594 41.84375 10.703125 41.351563 10.453125 C 40.605469 10.078125 39.828125 9.738281 39.050781 9.449219 C 38.921875 9.402344 38.789063 9.382813 38.65625 9.386719 Z M 44.433594 12.675781 C 44.179688 12.707031 43.9375 12.835938 43.765625 13.050781 C 43.425781 13.488281 43.5 14.113281 43.9375 14.453125 C 44.605469 14.976563 45.25 15.550781 45.847656 16.152344 C 54.039063 24.339844 54.039063 37.660156 45.847656 45.847656 C 45.457031 46.242188 45.457031 46.871094 45.847656 47.265625 C 46.042969 47.457031 46.300781 47.558594 46.558594 47.558594 C 46.8125 47.558594 47.070313 47.457031 47.265625 47.265625 C 56.230469 38.296875 56.230469 23.703125 47.265625 14.734375 C 46.605469 14.078125 45.902344 13.453125 45.171875 12.878906 C 44.953125 12.710938 44.6875 12.644531 44.433594 12.675781 Z M 30 20 C 26.140625 20 23 23.140625 23 27 L 23 28 L 21 28 C 20.445313 28 20 28.449219 20 29 C 20 29.550781 20.445313 30 21 30 L 23 30 L 23 32 L 19 32 C 18.445313 32 18 32.449219 18 33 C 18 33.550781 18.445313 34 19 34 L 23 34 L 23 35 C 23 38.859375 26.140625 42 30 42 L 35 42 C 35.554688 42 36 41.550781 36 41 C 36 40.449219 35.554688 40 35 40 L 30 40 C 27.242188 40 25 37.757813 25 35 L 25 34 L 31 34 C 31.554688 34 32 33.550781 32 33 C 32 32.449219 31.554688 32 31 32 L 25 32 L 25 30 L 33 30 C 33.554688 30 34 29.550781 34 29 C 34 28.449219 33.554688 28 33 28 L 25 28 L 25 27 C 25 24.242188 27.242188 22 30 22 L 35 22 C 35.554688 22 36 21.550781 36 21 C 36 20.449219 35.554688 20 35 20 Z M 21.375 47.394531 C 20.984375 47.347656 20.589844 47.527344 20.386719 47.886719 L 19.386719 49.617188 C 19.109375 50.097656 19.273438 50.707031 19.75 50.984375 C 19.90625 51.074219 20.078125 51.117188 20.25 51.117188 C 20.59375 51.117188 20.929688 50.9375 21.113281 50.617188 L 22.113281 48.886719 C 22.390625 48.410156 22.230469 47.796875 21.75 47.519531 C 21.628906 47.453125 21.5 47.410156 21.375 47.394531 Z M 40.625 47.394531 C 40.496094 47.410156 40.367188 47.453125 40.25 47.519531 C 39.769531 47.796875 39.609375 48.410156 39.886719 48.890625 L 40.886719 50.621094 C 41.070313 50.941406 41.40625 51.121094 41.75 51.121094 C 41.921875 51.121094 42.09375 51.074219 42.25 50.984375 C 42.730469 50.707031 42.890625 50.097656 42.613281 49.621094 L 41.613281 47.890625 C 41.40625 47.53125 41.011719 47.347656 40.625 47.394531 Z M 25.816406 49.34375 C 25.429688 49.398438 25.09375 49.675781 24.984375 50.078125 L 24.46875 52.011719 C 24.324219 52.542969 24.644531 53.089844 25.175781 53.234375 C 25.261719 53.257813 25.347656 53.265625 25.4375 53.265625 C 25.875 53.265625 26.28125 52.972656 26.402344 52.527344 L 26.921875 50.59375 C 27.0625 50.0625 26.746094 49.511719 26.214844 49.371094 C 26.078125 49.332031 25.945313 49.328125 25.816406 49.34375 Z M 36.1875 49.34375 C 36.058594 49.328125 35.921875 49.332031 35.785156 49.371094 C 35.253906 49.511719 34.9375 50.0625 35.078125 50.59375 L 35.597656 52.527344 C 35.71875 52.972656 36.121094 53.265625 36.5625 53.265625 C 36.652344 53.265625 36.738281 53.257813 36.824219 53.234375 C 37.355469 53.089844 37.675781 52.542969 37.53125 52.011719 L 37.015625 50.078125 C 36.90625 49.675781 36.570313 49.398438 36.1875 49.34375 Z M 31 50 C 30.445313 50 30 50.445313 30 51 L 30 53 C 30 53.554688 30.445313 54 31 54 C 31.554688 54 32 53.554688 32 53 L 32 51 C 32 50.445313 31.554688 50 31 50 Z "></path>
</g>
</svg>