<svg xmlns="http://www.w3.org/2000/svg" xmlns:xlink="http://www.w3.org/1999/xlink" viewBox="0 0 64 64" version="1.1">
<g id="surface1">
<path style=" " d="M 54.183594 6.34375 C 53.964844 6.332031 53.75 6.34375 53.53125 6.375 L 19.53125 11.746094 C 18.066406 11.976563 17 13.222656 17 14.707031 L 17 43.171875 C 16.34375 43.058594 15.667969 43 15 43 C 9.488281 43 5 46.8125 5 51.5 C 5 56.1875 9.488281 60 15 60 C 20.238281 60 24.644531 56.523438 25 52 L 25 26.90625 L 49 23.117188 L 49 37.171875 C 48.34375 37.058594 47.667969 37 47 37 C 41.488281 37 37 40.8125 37 45.5 C 37 50.1875 41.488281 54 47 54 C 52.238281 54 56.644531 50.523438 57 46 L 57 9.34375 C 57 8.464844 56.617188 7.632813 55.949219 7.0625 C 55.449219 6.632813 54.828125 6.386719 54.183594 6.34375 Z M 53.84375 8.351563 C 54.136719 8.304688 54.425781 8.386719 54.652344 8.578125 C 54.875 8.773438 55 9.042969 55 9.34375 L 55 45.921875 C 54.730469 49.332031 51.203125 52 47 52 C 42.589844 52 39 49.085938 39 45.5 C 39 41.914063 42.589844 39 47 39 C 47.554688 39 48.105469 39.046875 48.652344 39.144531 C 49.238281 39.246094 49.839844 39.085938 50.292969 38.703125 C 50.742188 38.324219 51 37.769531 51 37.183594 L 51 23.117188 C 51 22.53125 50.746094 21.980469 50.300781 21.597656 C 49.855469 21.21875 49.269531 21.050781 48.6875 21.140625 L 24.6875 24.933594 C 23.710938 25.085938 23 25.917969 23 26.90625 L 23 51.921875 C 22.730469 55.328125 19.203125 58 15 58 C 10.589844 58 7 55.085938 7 51.5 C 7 47.914063 10.589844 45 15 45 C 15.554688 45 16.105469 45.046875 16.652344 45.144531 C 17.238281 45.246094 17.839844 45.085938 18.292969 44.703125 C 18.742188 44.324219 19 43.769531 19 43.183594 L 19 14.707031 C 19 14.214844 19.355469 13.796875 19.84375 13.71875 Z M 51 10.5 C 50.449219 10.5 50 10.949219 50 11.5 L 50 13.5 C 50 14.050781 50.449219 14.5 51 14.5 C 51.550781 14.5 52 14.050781 52 13.5 L 52 11.5 C 52 10.949219 51.550781 10.5 51 10.5 Z M 46 11.25 C 45.449219 11.25 45 11.699219 45 12.25 L 45 14.25 C 45 14.800781 45.449219 15.25 46 15.25 C 46.550781 15.25 47 14.800781 47 14.25 L 47 12.25 C 47 11.699219 46.550781 11.25 46 11.25 Z M 41 12 C 40.449219 12 40 12.449219 40 13 L 40 15 C 40 15.550781 40.449219 16 41 16 C 41.550781 16 42 15.550781 42 15 L 42 13 C 42 12.449219 41.550781 12 41 12 Z M 36 12.75 C 35.449219 12.75 35 13.199219 35 13.75 L 35 15.75 C 35 16.300781 35.449219 16.75 36 16.75 C 36.550781 16.75 37 16.300781 37 15.75 L 37 13.75 C 37 13.199219 36.550781 12.75 36 12.75 Z M 31 13.75 C 30.449219 13.75 30 14.199219 30 14.75 L 30 16.75 C 30 17.300781 30.449219 17.75 31 17.75 C 31.550781 17.75 32 17.300781 32 16.75 L 32 14.75 C 32 14.199219 31.550781 13.75 31 13.75 Z M 26 14.5 C 25.449219 14.5 25 14.949219 25 15.5 L 25 17.5 C 25 18.050781 25.449219 18.5 26 18.5 C 26.550781 18.5 27 18.050781 27 17.5 L 27 15.5 C 27 14.949219 26.550781 14.5 26 14.5 Z M 21 15.25 C 20.449219 15.25 20 15.699219 20 16.25 L 20 18.25 C 20 18.800781 20.449219 19.25 21 19.25 C 21.550781 19.25 22 18.800781 22 18.25 L 22 16.25 C 22 15.699219 21.550781 15.25 21 15.25 Z "></path>
</g>
</svg>