<svg xmlns="http://www.w3.org/2000/svg" xmlns:xlink="http://www.w3.org/1999/xlink" viewBox="0 0 64 64" version="1.1">
<g id="surface1">
<path style=" " d="M 15 2.054688 C 7.832031 2.054688 2 7.886719 2 15.054688 C 2 22.222656 7.832031 28.054688 15 28.054688 C 18.121094 28.054688 21.105469 26.933594 23.464844 24.90625 L 29.578125 31.019531 C 33.007813 34.453125 34.8125 39.195313 34.527344 44.039063 L 34 53.03125 C 34 54.722656 30.738281 56.566406 25.6875 57.734375 C 24.695313 57.964844 24 58.84375 24 59.863281 C 24 61.070313 24.980469 62.054688 26.1875 62 L 49.8125 62 C 51.019531 62.054688 52 61.070313 52 59.863281 C 52 58.84375 51.308594 57.964844 50.3125 57.734375 C 45.261719 56.570313 42 54.722656 42 52.96875 L 41.472656 44.035156 C 41.191406 39.191406 42.992188 34.449219 46.421875 31.019531 L 61.707031 15.734375 C 61.992188 15.449219 62.078125 15.019531 61.921875 14.644531 C 61.769531 14.273438 61.402344 14.03125 61 14.03125 L 27.949219 14.03125 C 27.421875 7.339844 21.820313 2.054688 15 2.054688 Z M 15 4.054688 C 20.71875 4.054688 25.429688 8.441406 25.949219 14.03125 L 15 14.03125 C 14.597656 14.03125 14.230469 14.273438 14.078125 14.644531 C 13.921875 15.019531 14.007813 15.449219 14.292969 15.734375 L 22.046875 23.488281 C 20.070313 25.140625 17.589844 26.054688 15 26.054688 C 8.933594 26.054688 4 21.121094 4 15.054688 C 4 8.988281 8.933594 4.054688 15 4.054688 Z M 15 6.054688 C 14.445313 6.054688 14 6.5 14 7.054688 L 14 9.054688 C 14 9.605469 14.445313 10.054688 15 10.054688 C 15.554688 10.054688 16 9.609375 16 9.054688 L 16 7.054688 C 16 6.5 15.554688 6.054688 15 6.054688 Z M 9.34375 8.398438 C 9.085938 8.398438 8.832031 8.496094 8.636719 8.6875 C 8.246094 9.078125 8.246094 9.714844 8.636719 10.105469 L 10.050781 11.515625 C 10.246094 11.710938 10.5 11.8125 10.757813 11.8125 C 11.015625 11.8125 11.269531 11.710938 11.464844 11.515625 C 11.855469 11.125 11.855469 10.492188 11.464844 10.105469 L 10.050781 8.6875 C 9.855469 8.496094 9.597656 8.398438 9.34375 8.398438 Z M 20.65625 8.398438 C 20.402344 8.398438 20.144531 8.496094 19.949219 8.691406 L 18.535156 10.105469 C 18.144531 10.496094 18.144531 11.128906 18.535156 11.519531 C 18.730469 11.714844 18.984375 11.8125 19.242188 11.8125 C 19.5 11.8125 19.753906 11.714844 19.949219 11.519531 L 21.363281 10.105469 C 21.753906 9.714844 21.753906 9.082031 21.363281 8.691406 C 21.167969 8.496094 20.910156 8.398438 20.65625 8.398438 Z M 7 14.054688 C 6.445313 14.054688 6 14.5 6 15.054688 C 6 15.609375 6.445313 16.054688 7 16.054688 L 9 16.054688 C 9.554688 16.054688 10 15.605469 10 15.054688 C 10 14.5 9.554688 14.054688 9 14.054688 Z M 17.414063 16 L 58.585938 16 L 45.011719 29.605469 C 41.175781 33.4375 39.15625 38.742188 39.476563 44.15625 L 40 53.03125 C 40 56.835938 46.179688 58.832031 49.859375 59.683594 C 49.941406 59.703125 50 59.777344 50 59.863281 C 50 59.96875 49.914063 60.054688 49.8125 60.054688 L 26.1875 60.054688 C 26.082031 60.054688 26 59.96875 26 59.863281 C 26 59.777344 26.058594 59.703125 26.140625 59.683594 C 29.824219 58.832031 36 56.835938 36 53.089844 L 36.523438 44.15625 C 36.839844 38.742188 34.824219 33.4375 30.988281 29.605469 L 21.414063 20 L 43 20 C 43.554688 20.027344 44 19.582031 44 19.03125 C 44 18.476563 43.554688 18.03125 43 18.03125 L 19.414063 18.03125 Z M 47 18 C 46.445313 18 46 18.445313 46 19 C 46 19.554688 46.445313 20 47 20 L 51 20 C 51.554688 20 52 19.554688 52 19 C 52 18.445313 51.554688 18 51 18 Z M 10.757813 18.296875 C 10.5 18.296875 10.246094 18.394531 10.050781 18.589844 L 8.636719 20.003906 C 8.246094 20.398438 8.246094 21.027344 8.636719 21.421875 C 8.832031 21.613281 9.085938 21.714844 9.34375 21.714844 C 9.601563 21.714844 9.855469 21.613281 10.050781 21.421875 L 11.464844 20.003906 C 11.855469 19.613281 11.855469 18.980469 11.464844 18.589844 C 11.269531 18.394531 11.015625 18.296875 10.757813 18.296875 Z M 15 20.054688 C 14.445313 20.054688 14 20.5 14 21.054688 L 14 23.054688 C 14 23.609375 14.445313 24.054688 15 24.054688 C 15.554688 24.054688 16 23.609375 16 23.054688 L 16 21.054688 C 16 20.5 15.554688 20.054688 15 20.054688 Z "></path>
</g>
</svg>