<svg xmlns="http://www.w3.org/2000/svg" xmlns:xlink="http://www.w3.org/1999/xlink" viewBox="0 0 64 64" version="1.1">
<g id="surface1">
<path style=" " d="M 31 0 C 20.800781 0 13.128906 5.96875 10.769531 15.109375 C 10.628906 15.160156 10.480469 15.210938 10.339844 15.269531 C 6.25 16.871094 3.058594 19.730469 1.367188 23.320313 C -0.429688 27.160156 -0.460938 31.53125 1.269531 35.96875 C 2.980469 40.339844 6.621094 44.667969 11.011719 47.53125 C 14.25 49.640625 17.511719 50.738281 20.410156 50.738281 C 21.527344 50.738281 22.585938 50.5625 23.5625 50.234375 L 30 61.269531 L 30 63 C 30 63.550781 30.445313 64 31 64 C 31.554688 64 32 63.550781 32 63 L 32 61.277344 L 40.859375 46.515625 C 40.902344 46.441406 40.917969 46.355469 40.941406 46.277344 C 41.308594 46.3125 41.679688 46.339844 42.058594 46.339844 C 45.667969 46.339844 49.738281 44.640625 53.597656 41.46875 C 58.199219 37.679688 61.769531 32.339844 63.148438 27.1875 C 64.550781 21.96875 63.960938 17.050781 61.449219 12.960938 C 59.097656 9.132813 55.148438 6.300781 50.347656 5.019531 C 48.257813 4.460938 46.230469 4.230469 44.28125 4.300781 C 40.757813 1.5625 36.210938 0 31 0 Z M 31 2 C 34.890625 2 38.359375 2.949219 41.238281 4.679688 C 42.082031 5.179688 42.859375 5.738281 43.589844 6.367188 C 47.609375 9.789063 50 15.03125 50 21.3125 C 50 29.859375 45.511719 38.980469 39.8125 44.039063 C 39.210938 44.570313 38.601563 45.058594 37.96875 45.5 C 35.710938 47.078125 33.328125 48 31 48 C 29.921875 48 28.820313 47.800781 27.730469 47.429688 C 27.070313 47.199219 26.410156 46.910156 25.761719 46.5625 C 18.488281 42.679688 12 31.589844 12 21.3125 C 12 19.679688 12.160156 18.121094 12.46875 16.652344 C 12.621094 15.890625 12.820313 15.160156 13.050781 14.449219 C 15.539063 6.871094 22.230469 2 31 2 Z M 30.917969 3.960938 C 29.894531 3.96875 28.859375 4.066406 27.816406 4.253906 C 27.167969 4.371094 26.523438 4.523438 25.902344 4.703125 C 25.375 4.859375 25.070313 5.417969 25.222656 5.945313 C 25.351563 6.382813 25.75 6.664063 26.183594 6.664063 C 26.277344 6.664063 26.371094 6.652344 26.46875 6.625 C 27.019531 6.460938 27.59375 6.328125 28.171875 6.222656 C 30.023438 5.886719 31.839844 5.875 33.566406 6.1875 C 34.117188 6.289063 34.628906 5.925781 34.730469 5.382813 C 34.828125 4.835938 34.464844 4.316406 33.921875 4.21875 C 32.941406 4.042969 31.9375 3.953125 30.917969 3.960938 Z M 37.371094 5.328125 C 36.980469 5.320313 36.605469 5.539063 36.4375 5.914063 C 36.207031 6.417969 36.429688 7.011719 36.9375 7.238281 C 37.671875 7.570313 38.402344 7.972656 39.113281 8.433594 C 39.285156 8.542969 39.472656 8.59375 39.65625 8.59375 C 39.984375 8.59375 40.304688 8.433594 40.5 8.140625 C 40.796875 7.675781 40.664063 7.054688 40.203125 6.757813 C 39.40625 6.238281 38.585938 5.789063 37.757813 5.414063 C 37.632813 5.359375 37.5 5.332031 37.371094 5.328125 Z M 46.53125 6.367188 C 47.609375 6.449219 48.710938 6.648438 49.828125 6.949219 C 54.140625 8.097656 57.660156 10.609375 59.75 14.011719 C 61.960938 17.621094 62.46875 21.988281 61.21875 26.671875 C 59.941406 31.441406 56.609375 36.390625 52.320313 39.921875 C 48.921875 42.730469 45.398438 44.261719 42.328125 44.328125 C 47.738281 38.988281 52 30.449219 52 21.3125 C 52 15.269531 49.988281 10.097656 46.53125 6.367188 Z M 56.734375 14.035156 C 56.484375 14.003906 56.214844 14.070313 56 14.238281 C 55.5625 14.582031 55.484375 15.207031 55.828125 15.644531 C 57.222656 17.429688 57.988281 19.617188 58.046875 21.972656 C 58.0625 22.515625 58.507813 22.949219 59.046875 22.949219 L 59.074219 22.949219 C 59.625 22.933594 60.0625 22.476563 60.046875 21.921875 C 59.976563 19.136719 59.0625 16.539063 57.402344 14.414063 C 57.230469 14.195313 56.988281 14.066406 56.734375 14.035156 Z M 10.289063 17.46875 C 10.097656 18.699219 10 19.980469 10 21.3125 C 10 32.851563 16.78125 43.421875 24.097656 47.820313 C 23.808594 47.980469 23.511719 48.121094 23.210938 48.238281 C 20.261719 49.398438 16.199219 48.53125 12.097656 45.859375 C 8.050781 43.210938 4.699219 39.238281 3.132813 35.238281 C 1.601563 31.320313 1.621094 27.5 3.179688 24.179688 C 4.550781 21.28125 7.050781 18.910156 10.289063 17.46875 Z M 19.203125 24.894531 L 17.21875 25.121094 C 16.667969 25.179688 16.277344 25.675781 16.339844 26.222656 C 16.394531 26.734375 16.828125 27.113281 17.328125 27.113281 C 17.367188 27.113281 17.40625 27.113281 17.441406 27.109375 L 19.429688 26.882813 C 19.980469 26.820313 20.371094 26.324219 20.3125 25.777344 C 20.25 25.226563 19.753906 24.832031 19.203125 24.894531 Z M 20.570313 29.828125 C 20.441406 29.824219 20.308594 29.847656 20.179688 29.894531 L 18.316406 30.628906 C 17.804688 30.832031 17.550781 31.410156 17.753906 31.921875 C 17.90625 32.316406 18.285156 32.558594 18.6875 32.558594 C 18.808594 32.558594 18.929688 32.535156 19.050781 32.488281 L 20.910156 31.757813 C 21.425781 31.558594 21.679688 30.976563 21.476563 30.464844 C 21.324219 30.078125 20.960938 29.835938 20.570313 29.828125 Z M 23.15625 34.292969 C 22.90625 34.253906 22.636719 34.3125 22.414063 34.480469 L 20.808594 35.667969 C 20.363281 35.992188 20.269531 36.621094 20.59375 37.0625 C 20.792969 37.332031 21.09375 37.46875 21.402344 37.46875 C 21.609375 37.46875 21.816406 37.40625 21.996094 37.273438 L 23.605469 36.085938 C 24.046875 35.757813 24.140625 35.132813 23.8125 34.6875 C 23.648438 34.464844 23.410156 34.332031 23.15625 34.292969 Z M 26.429688 37.953125 C 26.175781 37.980469 25.929688 38.109375 25.761719 38.324219 L 24.515625 39.890625 C 24.167969 40.320313 24.242188 40.949219 24.671875 41.292969 C 24.859375 41.4375 25.078125 41.511719 25.296875 41.511719 C 25.589844 41.511719 25.882813 41.382813 26.078125 41.136719 L 27.324219 39.570313 C 27.667969 39.136719 27.59375 38.507813 27.164063 38.164063 C 26.949219 37.992188 26.683594 37.925781 26.429688 37.953125 Z M 37.65625 47.960938 L 32 57.390625 L 32 49.941406 C 33.847656 49.757813 35.765625 49.066406 37.65625 47.960938 Z M 26.128906 48.878906 C 27.433594 49.457031 28.734375 49.8125 30 49.9375 L 30 57.300781 L 25.375 49.371094 C 25.628906 49.214844 25.886719 49.0625 26.128906 48.878906 Z "></path>
</g>
</svg>