<svg xmlns="http://www.w3.org/2000/svg" xmlns:xlink="http://www.w3.org/1999/xlink" viewBox="0 0 64 64" version="1.1">
<g id="surface1">
<path style=" " d="M 56.59375 15.046875 C 53.847656 15.003906 51.121094 15.703125 48.710938 17.09375 L 38.464844 23.015625 L 14.867188 21.753906 C 13.746094 21.695313 12.625 22.015625 11.703125 22.652344 L 9.28125 24.324219 C 8.660156 24.753906 8.332031 25.488281 8.425781 26.238281 C 8.519531 26.988281 9.015625 27.617188 9.726563 27.886719 L 22.039063 32.496094 L 16.445313 35.726563 L 4.257813 34.4375 C 3.175781 34.324219 2.113281 34.550781 1.171875 35.09375 L 1.011719 35.1875 C 0.421875 35.527344 0.0429688 36.136719 0.00390625 36.816406 C -0.0351563 37.5 0.265625 38.152344 0.8125 38.558594 L 9.945313 45.390625 C 11.515625 46.566406 13.574219 46.917969 15.445313 46.328125 L 30.9375 41.453125 C 30.984375 41.4375 31.027344 41.421875 31.074219 41.398438 L 28.070313 59.394531 C 27.941406 60.175781 28.261719 60.941406 28.910156 61.390625 C 29.261719 61.632813 29.664063 61.753906 30.0625 61.753906 C 30.410156 61.753906 30.761719 61.664063 31.078125 61.480469 L 34.34375 59.59375 C 35.207031 59.097656 35.898438 58.367188 36.34375 57.480469 L 50 30.476563 L 56.550781 26.691406 C 59.203125 25.164063 61.480469 23.140625 63.3125 20.691406 L 63.390625 20.585938 C 64.023438 19.738281 64.175781 18.648438 63.796875 17.667969 C 63.417969 16.683594 62.574219 15.972656 61.542969 15.769531 L 59.34375 15.335938 C 58.429688 15.15625 57.511719 15.058594 56.59375 15.046875 Z M 56.566406 17.042969 C 57.363281 17.054688 58.164063 17.140625 58.953125 17.296875 L 61.15625 17.730469 C 61.515625 17.800781 61.796875 18.039063 61.929688 18.382813 C 62.0625 18.726563 62.007813 19.089844 61.789063 19.386719 L 61.710938 19.488281 C 60.039063 21.722656 57.96875 23.5625 55.550781 24.957031 L 52.449219 26.75 L 43.59375 31.75 C 43.113281 32.019531 42.945313 32.632813 43.21875 33.109375 C 43.402344 33.4375 43.738281 33.621094 44.089844 33.621094 C 44.257813 33.621094 44.425781 33.578125 44.578125 33.488281 L 46.890625 32.1875 L 34.558594 56.574219 C 34.289063 57.113281 33.867188 57.554688 33.34375 57.859375 L 30.046875 59.71875 L 33.394531 39.640625 C 33.457031 39.257813 33.296875 38.871094 32.980469 38.652344 C 32.808594 38.535156 32.609375 38.472656 32.40625 38.472656 C 32.234375 38.472656 32.0625 38.515625 31.90625 38.609375 L 30.230469 39.578125 L 14.84375 44.421875 C 13.582031 44.816406 12.203125 44.578125 11.144531 43.789063 L 2.015625 36.917969 L 2.171875 36.824219 C 2.742188 36.496094 3.390625 36.355469 4.046875 36.425781 L 16.558594 37.746094 C 16.765625 37.769531 16.980469 37.726563 17.160156 37.621094 L 24.933594 33.132813 C 24.9375 33.128906 24.941406 33.128906 24.945313 33.125 L 49.710938 18.828125 C 51.808594 17.617188 54.175781 17.007813 56.566406 17.042969 Z M 50.765625 20.507813 C 50.636719 20.523438 50.511719 20.566406 50.390625 20.636719 C 49.910156 20.910156 49.746094 21.523438 50.023438 22 L 51.023438 23.734375 C 51.210938 24.054688 51.542969 24.234375 51.890625 24.234375 C 52.058594 24.234375 52.234375 24.1875 52.390625 24.097656 C 52.871094 23.820313 53.03125 23.210938 52.753906 22.734375 L 51.753906 21 C 51.550781 20.640625 51.152344 20.460938 50.765625 20.507813 Z M 46.4375 23.007813 C 46.308594 23.023438 46.179688 23.066406 46.0625 23.136719 C 45.582031 23.410156 45.417969 24.023438 45.691406 24.5 L 46.691406 26.234375 C 46.878906 26.554688 47.214844 26.734375 47.5625 26.734375 C 47.730469 26.734375 47.902344 26.6875 48.0625 26.597656 C 48.539063 26.320313 48.703125 25.710938 48.425781 25.234375 L 47.425781 23.5 C 47.21875 23.140625 46.820313 22.960938 46.4375 23.007813 Z M 14.761719 23.753906 L 35.285156 24.847656 L 24.28125 31.199219 L 10.421875 25.96875 L 12.839844 24.296875 C 13.398438 23.910156 14.078125 23.71875 14.761719 23.753906 Z M 42.105469 25.507813 C 41.976563 25.523438 41.847656 25.566406 41.730469 25.636719 C 41.25 25.910156 41.085938 26.523438 41.363281 27 L 42.363281 28.734375 C 42.550781 29.054688 42.882813 29.234375 43.230469 29.234375 C 43.398438 29.234375 43.574219 29.1875 43.730469 29.097656 C 44.210938 28.820313 44.371094 28.210938 44.09375 27.734375 L 43.09375 26 C 42.886719 25.640625 42.492188 25.460938 42.105469 25.507813 Z M 37.777344 28.007813 C 37.644531 28.023438 37.519531 28.066406 37.402344 28.136719 C 36.921875 28.410156 36.757813 29.023438 37.03125 29.5 L 38.03125 31.234375 C 38.21875 31.554688 38.554688 31.734375 38.902344 31.734375 C 39.070313 31.734375 39.242188 31.6875 39.402344 31.597656 C 39.878906 31.320313 40.042969 30.710938 39.765625 30.234375 L 38.765625 28.5 C 38.558594 28.140625 38.160156 27.960938 37.777344 28.007813 Z M 33.445313 30.507813 C 33.316406 30.523438 33.191406 30.566406 33.070313 30.636719 C 32.589844 30.910156 32.425781 31.523438 32.703125 32 L 33.703125 33.734375 C 33.890625 34.054688 34.222656 34.234375 34.570313 34.234375 C 34.738281 34.234375 34.914063 34.1875 35.070313 34.097656 C 35.550781 33.820313 35.710938 33.210938 35.4375 32.734375 L 34.4375 31 C 34.226563 30.640625 33.832031 30.460938 33.445313 30.507813 Z M 29.113281 33.007813 C 28.988281 33.023438 28.859375 33.066406 28.738281 33.136719 C 28.257813 33.410156 28.097656 34.023438 28.375 34.5 L 29.375 36.234375 C 29.558594 36.554688 29.894531 36.734375 30.238281 36.734375 C 30.410156 36.734375 30.582031 36.6875 30.738281 36.597656 C 31.21875 36.320313 31.382813 35.710938 31.105469 35.234375 L 30.105469 33.5 C 29.898438 33.140625 29.5 32.960938 29.113281 33.007813 Z M 24.785156 35.507813 C 24.65625 35.523438 24.527344 35.566406 24.40625 35.636719 C 23.929688 35.910156 23.765625 36.523438 24.042969 37 L 25.042969 38.734375 C 25.230469 39.054688 25.5625 39.234375 25.910156 39.234375 C 26.078125 39.234375 26.25 39.1875 26.40625 39.097656 C 26.886719 38.820313 27.050781 38.210938 26.777344 37.734375 L 25.777344 36 C 25.566406 35.640625 25.171875 35.460938 24.785156 35.507813 Z "></path>
</g>
</svg>