<svg xmlns="http://www.w3.org/2000/svg" xmlns:xlink="http://www.w3.org/1999/xlink" viewBox="0 0 64 64" version="1.1">
<g id="surface1">
<path style=" " d="M 25 0.0585938 C 24.449219 0.0585938 24 0.503906 24 1.054688 L 24 8 L 9 8 C 7.347656 8 6 9.347656 6 11 C 6 12.300781 6.839844 13.402344 8 13.816406 L 8 60 L 5 60 C 4.449219 60 4 60.449219 4 61 C 4 61.550781 4.449219 62 5 62 L 58.109375 62 C 59.210938 62 60.109375 61.101563 60.109375 60 L 60.109375 57.550781 C 60.109375 55.640625 59.050781 53.921875 57.339844 53.070313 L 49.488281 49.171875 C 50.039063 48.238281 50.5 47.238281 50.839844 46.238281 C 51.691406 45.851563 52.429688 44.832031 52.789063 43.46875 C 53.019531 42.640625 53.058594 41.808594 52.921875 41.109375 C 52.730469 40.1875 52.210938 39.550781 51.5 39.359375 C 51.46875 39.359375 51.449219 39.351563 51.421875 39.339844 C 51.339844 38.851563 51.210938 38.347656 51.019531 37.78125 C 51.109375 37.808594 51.191406 37.839844 51.269531 37.871094 C 51.609375 38.007813 52.011719 37.949219 52.300781 37.710938 C 52.582031 37.480469 52.710938 37.101563 52.628906 36.730469 C 51.964844 33.6875 50.328125 31.390625 48 30.050781 L 48 13.816406 C 49.160156 13.402344 50 12.300781 50 11 C 50 9.347656 48.652344 8 47 8 L 30 8 L 30 4.054688 C 30 3.503906 29.550781 3.054688 29 3.054688 C 28.449219 3.054688 28 3.503906 28 4.054688 L 28 8 L 26 8 L 26 1.054688 C 26 0.503906 25.550781 0.0585938 25 0.0585938 Z M 9 10 L 47 10 C 47.550781 10 48 10.449219 48 11 C 48 11.550781 47.550781 12 47 12 L 9 12 C 8.449219 12 8 11.550781 8 11 C 8 10.449219 8.449219 10 9 10 Z M 10 14 L 46 14 L 46 29.1875 C 44.972656 28.878906 43.855469 28.710938 42.660156 28.710938 L 42 28.710938 C 40.703125 28.710938 38.871094 29.050781 37.496094 29.792969 C 36.078125 29.085938 34.460938 28.703125 32.65625 28.703125 L 32 28.703125 C 30.570313 28.703125 28.480469 29.125 27.078125 30.03125 C 24.535156 30.171875 22.730469 32.039063 22.449219 34.871094 C 22.273438 36.59375 22.4375 37.875 22.535156 38.640625 C 22.5625 38.871094 22.601563 39.15625 22.597656 39.21875 C 22.59375 39.261719 22.585938 39.300781 22.578125 39.34375 C 22.550781 39.351563 22.527344 39.355469 22.503906 39.363281 C 21.789063 39.554688 21.269531 40.191406 21.082031 41.113281 C 20.941406 41.808594 20.984375 42.644531 21.203125 43.46875 C 21.570313 44.832031 22.304688 45.847656 23.15625 46.246094 C 23.507813 47.277344 23.972656 48.28125 24.527344 49.214844 L 16.773438 53.070313 C 15.0625 53.921875 14 55.636719 14 57.546875 L 14 60 L 10 60 Z M 15 18 C 14.449219 18 14 18.449219 14 19 C 14 19.550781 14.449219 20 15 20 L 17 20 C 17.550781 20 18 19.550781 18 19 C 18 18.449219 17.550781 18 17 18 Z M 23 18 C 22.449219 18 22 18.449219 22 19 C 22 19.550781 22.449219 20 23 20 L 25 20 C 25.550781 20 26 19.550781 26 19 C 26 18.449219 25.550781 18 25 18 Z M 31 18 C 30.449219 18 30 18.449219 30 19 C 30 19.550781 30.449219 20 31 20 L 33 20 C 33.550781 20 34 19.550781 34 19 C 34 18.449219 33.550781 18 33 18 Z M 39 18 C 38.449219 18 38 18.449219 38 19 C 38 19.550781 38.449219 20 39 20 L 41 20 C 41.550781 20 42 19.550781 42 19 C 42 18.449219 41.550781 18 41 18 Z M 15 22 C 14.449219 22 14 22.449219 14 23 C 14 23.550781 14.449219 24 15 24 L 17 24 C 17.550781 24 18 23.550781 18 23 C 18 22.449219 17.550781 22 17 22 Z M 23 22 C 22.449219 22 22 22.449219 22 23 C 22 23.550781 22.449219 24 23 24 L 25 24 C 25.550781 24 26 23.550781 26 23 C 26 22.449219 25.550781 22 25 22 Z M 31 22 C 30.449219 22 30 22.449219 30 23 C 30 23.550781 30.449219 24 31 24 L 33 24 C 33.550781 24 34 23.550781 34 23 C 34 22.449219 33.550781 22 33 22 Z M 39 22 C 38.449219 22 38 22.449219 38 23 C 38 23.550781 38.449219 24 39 24 L 41 24 C 41.550781 24 42 23.550781 42 23 C 42 22.449219 41.550781 22 41 22 Z M 15 26 C 14.449219 26 14 26.449219 14 27 C 14 27.550781 14.449219 28 15 28 L 17 28 C 17.550781 28 18 27.550781 18 27 C 18 26.449219 17.550781 26 17 26 Z M 23 26 C 22.449219 26 22 26.449219 22 27 C 22 27.550781 22.449219 28 23 28 L 25 28 C 25.550781 28 26 27.550781 26 27 C 26 26.449219 25.550781 26 25 26 Z M 15 30 C 14.449219 30 14 30.449219 14 31 C 14 31.550781 14.449219 32 15 32 L 17 32 C 17.550781 32 18 31.550781 18 31 C 18 30.449219 17.550781 30 17 30 Z M 32 30.707031 L 32.65625 30.707031 C 33.320313 30.707031 33.945313 30.78125 34.546875 30.894531 C 33.386719 31.726563 32.625 33.113281 32.449219 34.871094 C 32.277344 36.601563 32.4375 37.871094 32.539063 38.640625 C 32.570313 38.871094 32.597656 39.160156 32.597656 39.21875 C 32.589844 39.261719 32.589844 39.300781 32.578125 39.34375 C 32.546875 39.351563 32.527344 39.359375 32.5 39.359375 C 31.789063 39.550781 31.269531 40.191406 31.078125 41.109375 C 30.9375 41.8125 30.980469 42.640625 31.207031 43.46875 C 31.570313 44.832031 32.308594 45.851563 33.15625 46.238281 C 33.507813 47.261719 33.96875 48.269531 34.53125 49.21875 L 26.769531 53.070313 C 25.058594 53.917969 24 55.640625 24 57.550781 L 24 60 L 16 60 L 16 57.546875 C 16 56.402344 16.636719 55.371094 17.664063 54.859375 L 26.421875 50.507813 C 26.4375 50.5 26.445313 50.484375 26.460938 50.476563 C 26.492188 50.460938 26.523438 50.453125 26.550781 50.433594 C 26.589844 50.40625 26.609375 50.363281 26.640625 50.332031 C 26.6875 50.289063 26.730469 50.25 26.765625 50.203125 C 26.808594 50.144531 26.839844 50.085938 26.867188 50.027344 C 26.890625 49.96875 26.917969 49.917969 26.933594 49.859375 C 26.949219 49.792969 26.953125 49.730469 26.957031 49.664063 C 26.960938 49.601563 26.960938 49.542969 26.953125 49.480469 C 26.945313 49.414063 26.925781 49.351563 26.902344 49.289063 C 26.886719 49.25 26.890625 49.207031 26.871094 49.167969 C 26.855469 49.144531 26.835938 49.128906 26.820313 49.105469 C 26.808594 49.085938 26.804688 49.058594 26.789063 49.035156 C 25.96875 47.875 25.316406 46.527344 24.90625 45.140625 C 24.777344 44.714844 24.445313 44.433594 24.003906 44.433594 C 23.871094 44.386719 23.398438 43.929688 23.136719 42.953125 C 22.941406 42.222656 22.992188 41.683594 23.066406 41.410156 C 23.339844 41.527344 23.652344 41.519531 23.921875 41.382813 C 24.238281 41.21875 24.445313 40.898438 24.464844 40.539063 C 24.480469 40.210938 24.511719 39.882813 24.566406 39.566406 C 24.625 39.234375 24.582031 38.878906 24.519531 38.386719 C 24.425781 37.664063 24.289063 36.570313 24.4375 35.074219 C 24.632813 33.132813 25.707031 32.023438 27.402344 32.023438 C 27.617188 32.023438 27.828125 31.953125 28.003906 31.824219 C 28.839844 31.199219 30.59375 30.707031 32 30.707031 Z M 42 30.710938 L 42.660156 30.710938 C 46.320313 30.710938 49.011719 32.488281 50.230469 35.660156 C 49.871094 35.691406 49.519531 35.808594 49.238281 36.078125 C 48.96875 36.339844 48.582031 36.921875 48.960938 37.960938 C 49.359375 39.03125 49.5 39.648438 49.539063 40.539063 C 49.550781 40.898438 49.789063 41.199219 50.109375 41.371094 C 50.359375 41.488281 50.660156 41.5 50.929688 41.402344 C 51.007813 41.671875 51.058594 42.21875 50.859375 42.949219 C 50.597656 43.929688 50.128906 44.378906 50.050781 44.429688 C 49.609375 44.429688 49.21875 44.71875 49.089844 45.140625 C 48.78125 46.199219 48.300781 47.289063 47.6875 48.28125 C 47.339844 48.871094 46.941406 49.421875 46.5 49.921875 C 45.238281 51.390625 43.671875 52.402344 42 52.402344 C 40.351563 52.402344 38.789063 51.410156 37.53125 49.960938 C 37.089844 49.460938 36.691406 48.910156 36.328125 48.320313 C 35.710938 47.308594 35.230469 46.21875 34.910156 45.140625 C 34.78125 44.71875 34.449219 44.429688 34 44.429688 C 33.871094 44.378906 33.402344 43.929688 33.140625 42.949219 C 32.941406 42.21875 32.992188 41.679688 33.070313 41.410156 C 33.339844 41.53125 33.648438 41.519531 33.921875 41.378906 C 34.238281 41.222656 34.449219 40.898438 34.460938 40.539063 C 34.480469 40.210938 34.511719 39.878906 34.570313 39.570313 C 34.628906 39.230469 34.578125 38.878906 34.519531 38.390625 C 34.429688 37.660156 34.289063 36.570313 34.4375 35.070313 C 34.628906 33.128906 35.710938 32.019531 37.402344 32.019531 C 37.621094 32.019531 37.828125 31.949219 38 31.820313 C 38.839844 31.199219 40.601563 30.710938 42 30.710938 Z M 15 34 C 14.449219 34 14 34.449219 14 35 C 14 35.550781 14.449219 36 15 36 L 17 36 C 17.550781 36 18 35.550781 18 35 C 18 34.449219 17.550781 34 17 34 Z M 38.425781 34.054688 C 37.835938 34.003906 37.238281 34.277344 36.894531 34.796875 L 35.84375 36.398438 C 35.539063 36.859375 35.664063 37.480469 36.125 37.78125 C 36.296875 37.894531 36.488281 37.949219 36.675781 37.949219 C 37 37.949219 37.320313 37.789063 37.511719 37.5 L 38.402344 36.144531 L 39.160156 36.515625 C 41.082031 37.453125 43.226563 37.949219 45.363281 37.949219 L 47.046875 37.949219 C 47.597656 37.949219 48.046875 37.5 48.046875 36.949219 C 48.046875 36.394531 47.597656 35.949219 47.046875 35.949219 L 45.363281 35.949219 C 43.53125 35.949219 41.6875 35.523438 40.035156 34.71875 L 39.007813 34.21875 C 38.820313 34.125 38.621094 34.070313 38.425781 34.054688 Z M 15 38 C 14.449219 38 14 38.449219 14 39 C 14 39.550781 14.449219 40 15 40 L 17 40 C 17.550781 40 18 39.550781 18 39 C 18 38.449219 17.550781 38 17 38 Z M 15 42 C 14.449219 42 14 42.449219 14 43 C 14 43.550781 14.449219 44 15 44 L 17 44 C 17.550781 44 18 43.550781 18 43 C 18 42.449219 17.550781 42 17 42 Z M 15 46 C 14.449219 46 14 46.449219 14 47 C 14 47.550781 14.449219 48 15 48 L 17 48 C 17.550781 48 18 47.550781 18 47 C 18 46.449219 17.550781 46 17 46 Z M 48.328125 50.828125 L 56.449219 54.859375 C 57.46875 55.371094 58.109375 56.402344 58.109375 57.550781 L 58.109375 60 L 26 60 L 26 57.550781 C 26 56.402344 26.640625 55.371094 27.660156 54.859375 L 35.699219 50.871094 C 37.359375 52.9375 39.558594 54.402344 42 54.402344 C 44.460938 54.402344 46.671875 52.921875 48.328125 50.828125 Z "></path>
</g>
</svg>