<svg xmlns="http://www.w3.org/2000/svg" xmlns:xlink="http://www.w3.org/1999/xlink" viewBox="0 0 64 64" version="1.1">
<g id="surface1">
<path style=" " d="M 34 2 C 33.835938 2 33.671875 2.039063 33.523438 2.121094 L 8.523438 15.660156 C 8.199219 15.835938 8 16.175781 8 16.542969 L 8 22.792969 C 8 23.144531 8.1875 23.46875 8.488281 23.652344 C 8.792969 23.832031 9.164063 23.839844 9.476563 23.671875 L 12 22.304688 L 12 35.792969 L 2.523438 40.925781 C 2.203125 41.101563 2 41.4375 2 41.804688 L 2 46.792969 C 2 47.144531 2.1875 47.46875 2.488281 47.652344 C 2.789063 47.832031 3.167969 47.839844 3.476563 47.671875 L 6 46.304688 L 6 60 L 3 60 C 2.445313 60 2 60.445313 2 61 C 2 61.554688 2.445313 62 3 62 L 43 62 C 43.554688 62 44 61.554688 44 61 C 44 60.445313 43.554688 60 43 60 L 40 60 L 40 56 L 59 56 C 59.554688 56 60 55.554688 60 55 C 60 54.445313 59.554688 54 59 54 L 56 54 L 56 22.304688 L 58.523438 23.671875 C 58.671875 23.753906 58.835938 23.792969 59 23.792969 C 59.175781 23.792969 59.355469 23.746094 59.511719 23.652344 C 59.8125 23.46875 60 23.144531 60 22.792969 L 60 16.542969 C 60 16.175781 59.796875 15.835938 59.476563 15.660156 L 34.476563 2.121094 C 34.328125 2.039063 34.164063 2 34 2 Z M 34 4.136719 L 58 17.136719 L 58 21.113281 L 34.476563 8.371094 C 34.328125 8.289063 34.164063 8.25 34 8.25 C 33.835938 8.25 33.671875 8.289063 33.523438 8.371094 L 10 21.113281 L 10 17.136719 Z M 34 10.390625 L 54 21.21875 L 54 44 L 47 44 C 46.445313 44 46 44.445313 46 45 C 46 45.554688 46.445313 46 47 46 L 54 46 L 54 54 L 40 54 L 40 46.359375 L 42.417969 47.671875 C 42.566406 47.753906 42.730469 47.792969 42.894531 47.792969 C 43.070313 47.792969 43.25 47.746094 43.40625 47.652344 C 43.710938 47.46875 43.894531 47.144531 43.894531 46.792969 L 43.894531 41.804688 C 43.894531 41.4375 43.691406 41.101563 43.371094 40.925781 L 37.96875 38 L 39 38 C 39.554688 38 40 37.554688 40 37 C 40 36.445313 39.554688 36 39 36 L 37 36 C 36.46875 36 36.042969 36.417969 36.011719 36.9375 L 30.585938 34 L 31 34 C 31.554688 34 32 33.554688 32 33 C 32 32.445313 31.554688 32 31 32 L 29 32 C 28.574219 32 28.21875 32.265625 28.074219 32.640625 L 23.421875 30.121094 C 23.125 29.960938 22.769531 29.960938 22.46875 30.121094 L 14 34.707031 L 14 21.21875 Z M 21 22 C 20.445313 22 20 22.445313 20 23 C 20 23.554688 20.445313 24 21 24 L 23 24 C 23.554688 24 24 23.554688 24 23 C 24 22.445313 23.554688 22 23 22 Z M 29 22 C 28.445313 22 28 22.445313 28 23 C 28 23.554688 28.445313 24 29 24 L 31 24 C 31.554688 24 32 23.554688 32 23 C 32 22.445313 31.554688 22 31 22 Z M 37 22 C 36.445313 22 36 22.445313 36 23 C 36 23.554688 36.445313 24 37 24 L 39 24 C 39.554688 24 40 23.554688 40 23 C 40 22.445313 39.554688 22 39 22 Z M 45 22 C 44.445313 22 44 22.445313 44 23 C 44 23.554688 44.445313 24 45 24 L 47 24 C 47.554688 24 48 23.554688 48 23 C 48 22.445313 47.554688 22 47 22 Z M 21 26 C 20.445313 26 20 26.445313 20 27 C 20 27.554688 20.445313 28 21 28 L 23 28 C 23.554688 28 24 27.554688 24 27 C 24 26.445313 23.554688 26 23 26 Z M 29 26 C 28.445313 26 28 26.445313 28 27 C 28 27.554688 28.445313 28 29 28 L 31 28 C 31.554688 28 32 27.554688 32 27 C 32 26.445313 31.554688 26 31 26 Z M 37 26 C 36.445313 26 36 26.445313 36 27 C 36 27.554688 36.445313 28 37 28 L 39 28 C 39.554688 28 40 27.554688 40 27 C 40 26.445313 39.554688 26 39 26 Z M 45 26 C 44.445313 26 44 26.445313 44 27 C 44 27.554688 44.445313 28 45 28 L 47 28 C 47.554688 28 48 27.554688 48 27 C 48 26.445313 47.554688 26 47 26 Z M 37 32 C 36.445313 32 36 32.445313 36 33 C 36 33.554688 36.445313 34 37 34 L 39 34 C 39.554688 34 40 33.554688 40 33 C 40 32.445313 39.554688 32 39 32 Z M 45 32 C 44.445313 32 44 32.445313 44 33 C 44 33.554688 44.445313 34 45 34 L 47 34 C 47.554688 34 48 33.554688 48 33 C 48 32.445313 47.554688 32 47 32 Z M 22.949219 32.136719 L 41.894531 42.402344 L 41.894531 45.113281 L 23.421875 35.109375 C 23.277344 35.027344 23.113281 34.984375 22.949219 34.984375 C 22.78125 34.984375 22.621094 35.027344 22.46875 35.109375 L 4 45.113281 L 4 42.402344 Z M 45 36 C 44.445313 36 44 36.445313 44 37 C 44 37.554688 44.445313 38 45 38 L 47 38 C 47.554688 38 48 37.554688 48 37 C 48 36.445313 47.554688 36 47 36 Z M 22.949219 37.125 L 38 45.277344 L 38 60 L 21.996094 60 C 21.996094 59.984375 22 59.964844 22 59.949219 L 22 51.949219 C 22 50.847656 21.101563 49.949219 20 49.949219 L 14 49.949219 C 12.898438 49.949219 12 50.847656 12 51.949219 L 12 59.949219 C 12 59.964844 12.003906 59.984375 12.003906 60 L 8 60 L 8 45.21875 Z M 13 46 C 12.445313 46 12 46.445313 12 47 C 12 47.554688 12.445313 48 13 48 L 15 48 C 15.554688 48 16 47.554688 16 47 C 16 46.445313 15.554688 46 15 46 Z M 19 46 C 18.445313 46 18 46.445313 18 47 C 18 47.554688 18.445313 48 19 48 L 21 48 C 21.554688 48 22 47.554688 22 47 C 22 46.445313 21.554688 46 21 46 Z M 25 46 C 24.445313 46 24 46.445313 24 47 C 24 47.554688 24.445313 48 25 48 L 27 48 C 27.554688 48 28 47.554688 28 47 C 28 46.445313 27.554688 46 27 46 Z M 31 46 C 30.445313 46 30 46.445313 30 47 C 30 47.554688 30.445313 48 31 48 L 33 48 C 33.554688 48 34 47.554688 34 47 C 34 46.445313 33.554688 46 33 46 Z M 25 50 C 24.445313 50 24 50.445313 24 51 C 24 51.554688 24.445313 52 25 52 L 27 52 C 27.554688 52 28 51.554688 28 51 C 28 50.445313 27.554688 50 27 50 Z M 31 50 C 30.445313 50 30 50.445313 30 51 C 30 51.554688 30.445313 52 31 52 L 33 52 C 33.554688 52 34 51.554688 34 51 C 34 50.445313 33.554688 50 33 50 Z M 14 51.949219 L 20 51.949219 L 20 59.949219 L 14 59.949219 Z M 25 54 C 24.445313 54 24 54.445313 24 55 C 24 55.554688 24.445313 56 25 56 L 27 56 C 27.554688 56 28 55.554688 28 55 C 28 54.445313 27.554688 54 27 54 Z M 31 54 C 30.445313 54 30 54.445313 30 55 C 30 55.554688 30.445313 56 31 56 L 33 56 C 33.554688 56 34 55.554688 34 55 C 34 54.445313 33.554688 54 33 54 Z "></path>
</g>
</svg>