<svg xmlns="http://www.w3.org/2000/svg" xmlns:xlink="http://www.w3.org/1999/xlink" viewBox="0 0 64 64" version="1.1">
<g id="surface1">
<path style=" " d="M 38 2 C 34.691406 2 32 4.691406 32 8 C 32 11.308594 34.691406 14 38 14 C 41.308594 14 44 11.308594 44 8 C 44 4.691406 41.308594 2 38 2 Z M 38 3.773438 C 40.328125 3.773438 42.222656 5.671875 42.222656 8 C 42.222656 10.328125 40.328125 12.222656 38 12.222656 C 35.671875 12.222656 33.777344 10.328125 33.777344 8 C 33.777344 5.671875 35.671875 3.773438 38 3.773438 Z M 32.359375 14.378906 C 31.683594 14.410156 31.003906 14.476563 30.328125 14.574219 L 23.890625 15.503906 C 22.175781 15.75 20.691406 16.894531 20.011719 18.484375 L 17.40625 24.554688 C 16.777344 26.019531 17.335938 27.738281 18.699219 28.558594 C 18.710938 28.566406 18.722656 28.574219 18.734375 28.578125 C 20.242188 29.460938 22.191406 28.964844 23.09375 27.464844 L 25.65625 23.1875 C 25.832031 22.902344 26.128906 22.71875 26.457031 22.703125 L 27.972656 22.609375 L 25.75 31.355469 C 25.566406 31.140625 25.304688 31 25 31 C 24.445313 31 24 31.445313 24 32 L 24 34 C 24 34.285156 24.121094 34.539063 24.3125 34.71875 L 21.71875 39.589844 C 21.230469 40.5 20.324219 41.09375 19.296875 41.171875 L 11.792969 41.734375 C 10.644531 41.824219 9.636719 42.433594 9.023438 43.414063 C 8.417969 44.390625 8.3125 45.566406 8.742188 46.636719 C 9.316406 48.074219 10.726563 48.972656 12.296875 48.875 L 22.105469 48.238281 C 24.765625 48.066406 27.199219 46.730469 28.777344 44.578125 L 32.417969 39.621094 L 37.113281 45.234375 C 37.851563 46.113281 38.40625 47.113281 38.765625 48.203125 L 41.828125 57.535156 C 42.3125 59.011719 43.679688 60 45.328125 60 C 46.378906 60 47.375 59.539063 48.054688 58.738281 C 48.738281 57.9375 49.03125 56.878906 48.859375 55.84375 L 47.84375 49.648438 C 47.390625 46.886719 46.40625 44.277344 44.921875 41.90625 L 40.5 34.847656 C 40.792969 34.671875 41 34.367188 41 34 L 41 32 C 41 31.605469 40.769531 31.273438 40.4375 31.109375 L 41.660156 25.46875 L 43.90625 27.292969 C 45.3125 28.4375 47.234375 28.726563 48.917969 28.058594 L 54.953125 25.640625 C 56.429688 25.050781 57.253906 23.441406 56.867188 21.890625 C 56.441406 20.179688 54.695313 19.132813 52.984375 19.5625 L 48.21875 20.753906 C 47.878906 20.847656 47.515625 20.738281 47.269531 20.492188 L 46.117188 19.34375 C 44.003906 17.226563 41.351563 15.722656 38.453125 14.992188 C 38.441406 14.988281 38.433594 14.988281 38.421875 14.984375 C 36.429688 14.484375 34.398438 14.28125 32.359375 14.378906 Z M 32.449219 16.375 C 34.28125 16.289063 36.113281 16.472656 37.910156 16.917969 C 37.921875 16.921875 37.933594 16.921875 37.941406 16.921875 C 40.5 17.5625 42.839844 18.886719 44.703125 20.753906 L 45.855469 21.90625 C 46.597656 22.644531 47.691406 22.949219 48.703125 22.691406 L 53.472656 21.503906 C 54.113281 21.34375 54.769531 21.734375 54.929688 22.378906 C 55.074219 22.957031 54.765625 23.5625 54.210938 23.78125 L 48.175781 26.199219 C 47.164063 26.601563 46.011719 26.425781 45.171875 25.738281 L 41.660156 22.890625 C 41.390625 22.671875 41.027344 22.609375 40.699219 22.722656 C 40.371094 22.839844 40.125 23.117188 40.050781 23.453125 L 37.8125 33.78125 C 37.753906 34.039063 37.800781 34.304688 37.9375 34.527344 L 43.222656 42.96875 C 44.570313 45.113281 45.457031 47.46875 45.871094 49.96875 L 46.886719 56.164063 C 46.960938 56.625 46.832031 57.089844 46.53125 57.441406 C 46.230469 57.792969 45.792969 58 45.230469 58 C 44.546875 58 43.945313 57.5625 43.730469 56.914063 L 40.664063 47.578125 C 40.226563 46.246094 39.550781 45.023438 38.648438 43.953125 L 33.128906 37.359375 C 32.9375 37.128906 32.660156 37 32.363281 37 C 32.351563 37 32.339844 37 32.328125 37 C 32.023438 37.011719 31.738281 37.160156 31.558594 37.40625 L 27.164063 43.398438 C 25.9375 45.074219 24.046875 46.109375 21.972656 46.246094 L 12.164063 46.878906 C 11.472656 46.914063 10.851563 46.527344 10.597656 45.890625 C 10.410156 45.421875 10.453125 44.902344 10.722656 44.46875 C 10.992188 44.039063 11.4375 43.769531 11.941406 43.734375 L 19.449219 43.164063 C 21.164063 43.035156 22.671875 42.050781 23.484375 40.53125 L 27.246094 33.46875 C 27.28125 33.398438 27.3125 33.324219 27.332031 33.246094 L 30.070313 22.488281 L 32.476563 22.347656 C 33.027344 22.316406 33.449219 21.839844 33.417969 21.289063 C 33.382813 20.738281 32.894531 20.320313 32.359375 20.351563 L 26.34375 20.703125 C 25.351563 20.761719 24.457031 21.304688 23.945313 22.15625 L 21.378906 26.433594 C 21.039063 27 20.296875 27.183594 19.734375 26.84375 C 19.722656 26.839844 19.71875 26.835938 19.707031 26.828125 C 19.214844 26.519531 19.011719 25.882813 19.246094 25.34375 L 21.847656 19.269531 C 22.257813 18.316406 23.148438 17.632813 24.175781 17.484375 L 30.613281 16.550781 C 31.222656 16.464844 31.835938 16.40625 32.449219 16.375 Z M 10 31 C 9.445313 31 9 31.445313 9 32 L 9 34 C 9 34.554688 9.445313 35 10 35 C 10.554688 35 11 34.554688 11 34 L 11 32 C 11 31.445313 10.554688 31 10 31 Z M 15 31 C 14.445313 31 14 31.445313 14 32 L 14 34 C 14 34.554688 14.445313 35 15 35 C 15.554688 35 16 34.554688 16 34 L 16 32 C 16 31.445313 15.554688 31 15 31 Z M 20 31 C 19.445313 31 19 31.445313 19 32 L 19 34 C 19 34.554688 19.445313 35 20 35 C 20.554688 35 21 34.554688 21 34 L 21 32 C 21 31.445313 20.554688 31 20 31 Z M 30 31 C 29.445313 31 29 31.445313 29 32 L 29 34 C 29 34.554688 29.445313 35 30 35 C 30.554688 35 31 34.554688 31 34 L 31 32 C 31 31.445313 30.554688 31 30 31 Z M 35 31 C 34.445313 31 34 31.445313 34 32 L 34 34 C 34 34.554688 34.445313 35 35 35 C 35.554688 35 36 34.554688 36 34 L 36 32 C 36 31.445313 35.554688 31 35 31 Z M 45 31 C 44.445313 31 44 31.445313 44 32 L 44 34 C 44 34.554688 44.445313 35 45 35 C 45.554688 35 46 34.554688 46 34 L 46 32 C 46 31.445313 45.554688 31 45 31 Z M 50 31 C 49.445313 31 49 31.445313 49 32 L 49 34 C 49 34.554688 49.445313 35 50 35 C 50.554688 35 51 34.554688 51 34 L 51 32 C 51 31.445313 50.554688 31 50 31 Z M 55 31 C 54.445313 31 54 31.445313 54 32 L 54 34 C 54 34.554688 54.445313 35 55 35 C 55.554688 35 56 34.554688 56 34 L 56 32 C 56 31.445313 55.554688 31 55 31 Z "></path>
</g>
</svg>