<svg xmlns="http://www.w3.org/2000/svg" xmlns:xlink="http://www.w3.org/1999/xlink" viewBox="0 0 64 64" version="1.1">
<g id="surface1">
<path style=" " d="M 32 2.6875 C 31.269531 2.6875 30.539063 2.894531 29.886719 3.296875 L 0.992188 21.300781 C 0.402344 21.667969 0.0507813 22.304688 0.0507813 23 C 0.0507813 23.695313 0.402344 24.332031 0.992188 24.699219 L 11.96875 31.535156 C 11.96875 31.535156 12.019531 31.785156 12.003906 31.882813 L 10.269531 46.652344 C 10.167969 47.5 10.4375 48.355469 11.007813 48.996094 C 11.574219 49.632813 12.394531 50 13.25 50 L 16.957031 50 C 20.660156 50 24.21875 51.363281 26.972656 53.835938 L 30.003906 56.550781 C 30.574219 57.066406 31.289063 57.320313 32.003906 57.320313 C 32.71875 57.320313 33.429688 57.066406 34 56.5625 L 37.117188 53.789063 C 39.867188 51.34375 43.402344 50 47.082031 50 L 50.75 50 C 51.605469 50 52.425781 49.632813 52.992188 48.996094 C 53.5625 48.355469 53.832031 47.5 53.730469 46.652344 L 51.992188 31.882813 C 51.980469 31.785156 51.984375 31.566406 51.984375 31.566406 L 58 27.816406 L 58 42 C 56.898438 42 56 42.898438 56 44 L 56 46.875 C 54.972656 48.335938 54 50.300781 54 52.5 C 54 57.054688 58.179688 60.617188 58.359375 60.765625 L 59 61.308594 L 59.640625 60.765625 C 59.820313 60.617188 64 57.054688 64 52.5 C 64 50.300781 63.027344 48.335938 62 46.875 L 62 44 C 62 42.898438 61.101563 42 60 42 L 60 26.574219 L 63.007813 24.699219 C 63.597656 24.328125 63.949219 23.695313 63.949219 23 C 63.949219 22.308594 63.597656 21.671875 63.007813 21.304688 L 34.113281 3.296875 C 33.460938 2.894531 32.730469 2.6875 32 2.6875 Z M 32 4.691406 C 32.367188 4.691406 32.730469 4.792969 33.058594 4.996094 L 61.949219 23 L 33.058594 41.003906 C 32.40625 41.410156 31.59375 41.410156 30.941406 41.003906 L 2.050781 23 L 30.941406 4.996094 C 31.269531 4.792969 31.632813 4.691406 32 4.691406 Z M 51.191406 18.015625 C 51.0625 17.992188 50.929688 17.992188 50.796875 18.019531 L 47.824219 18.644531 C 47.285156 18.761719 46.9375 19.292969 47.050781 19.832031 C 47.152344 20.304688 47.566406 20.625 48.03125 20.625 C 48.097656 20.625 48.167969 20.621094 48.238281 20.605469 L 51.207031 19.980469 C 51.746094 19.867188 52.09375 19.335938 51.980469 18.796875 C 51.894531 18.390625 51.574219 18.09375 51.191406 18.015625 Z M 44.371094 19.453125 C 44.242188 19.429688 44.109375 19.429688 43.972656 19.457031 L 31.796875 22.019531 C 31.253906 22.136719 30.90625 22.667969 31.019531 23.207031 C 31.121094 23.675781 31.535156 24 32 24 C 32.066406 24 32.136719 23.992188 32.203125 23.980469 L 44.386719 21.414063 C 44.925781 21.300781 45.273438 20.769531 45.15625 20.230469 C 45.074219 19.824219 44.753906 19.527344 44.371094 19.453125 Z M 13.921875 32.75 L 29.886719 42.703125 C 30.535156 43.105469 31.269531 43.3125 32 43.3125 C 32.730469 43.3125 33.460938 43.105469 34.113281 42.703125 L 50.078125 32.75 L 51.21875 42.40625 C 51.089844 42.574219 51 42.773438 51 43 L 51 45 C 51 45.421875 51.261719 45.777344 51.628906 45.925781 L 51.746094 46.886719 C 51.777344 47.171875 51.691406 47.445313 51.5 47.664063 C 51.304688 47.878906 51.039063 48 50.75 48 L 47.082031 48 C 42.914063 48 38.902344 49.527344 35.789063 52.296875 L 32.671875 55.066406 C 32.289063 55.40625 31.71875 55.402344 31.339844 55.0625 L 28.3125 52.34375 C 25.1875 49.542969 21.152344 48 16.957031 48 L 13.25 48 C 12.960938 48 12.695313 47.878906 12.5 47.664063 C 12.308594 47.449219 12.222656 47.171875 12.253906 46.886719 L 12.371094 45.925781 C 12.738281 45.777344 13 45.421875 13 45 L 13 43 C 13 42.773438 12.910156 42.574219 12.78125 42.40625 Z M 17 42 C 16.445313 42 16 42.449219 16 43 L 16 45 C 16 45.550781 16.445313 46 17 46 C 17.554688 46 18 45.550781 18 45 L 18 43 C 18 42.449219 17.554688 42 17 42 Z M 22 42 C 21.445313 42 21 42.449219 21 43 L 21 45 C 21 45.550781 21.445313 46 22 46 C 22.554688 46 23 45.550781 23 45 L 23 43 C 23 42.449219 22.554688 42 22 42 Z M 42 42 C 41.445313 42 41 42.449219 41 43 L 41 45 C 41 45.550781 41.445313 46 42 46 C 42.554688 46 43 45.550781 43 45 L 43 43 C 43 42.449219 42.554688 42 42 42 Z M 47 42 C 46.445313 42 46 42.449219 46 43 L 46 45 C 46 45.550781 46.445313 46 47 46 C 47.554688 46 48 45.550781 48 45 L 48 43 C 48 42.449219 47.554688 42 47 42 Z M 27 44 C 26.445313 44 26 44.449219 26 45 L 26 47 C 26 47.550781 26.445313 48 27 48 C 27.554688 48 28 47.550781 28 47 L 28 45 C 28 44.449219 27.554688 44 27 44 Z M 37 44 C 36.445313 44 36 44.449219 36 45 L 36 47 C 36 47.550781 36.445313 48 37 48 C 37.554688 48 38 47.550781 38 47 L 38 45 C 38 44.449219 37.554688 44 37 44 Z M 58 44 L 60 44 L 60 46 L 58 46 Z M 32 46 C 31.445313 46 31 46.449219 31 47 L 31 49 C 31 49.550781 31.445313 50 32 50 C 32.554688 50 33 49.550781 33 49 L 33 47 C 33 46.449219 32.554688 46 32 46 Z M 57.660156 48 L 60.339844 48 C 61.195313 49.203125 62 50.789063 62 52.5 C 62 55.160156 60.046875 57.535156 59 58.617188 C 57.953125 57.535156 56 55.160156 56 52.5 C 56 50.789063 56.804688 49.203125 57.660156 48 Z "></path>
</g>
</svg>