<svg xmlns="http://www.w3.org/2000/svg" xmlns:xlink="http://www.w3.org/1999/xlink" viewBox="0 0 64 64" version="1.1">
<g id="surface1">
<path style=" " d="M 32 4.171875 C 14.355469 4.171875 0 15.648438 0 29.757813 C 0 38.632813 5.558594 46.675781 14.90625 51.394531 C 14.734375 53.742188 14.097656 57.652344 11.902344 61.3125 C 11.695313 61.65625 11.714844 62.089844 11.949219 62.410156 C 12.136719 62.675781 12.441406 62.828125 12.761719 62.828125 C 12.832031 62.828125 12.90625 62.820313 12.976563 62.804688 C 20.546875 61.121094 24.097656 56.804688 25.378906 54.789063 C 27.566406 55.15625 29.789063 55.34375 32 55.34375 C 49.648438 55.34375 64 43.867188 64 29.761719 C 64 15.652344 49.644531 4.171875 32 4.171875 Z M 32 6.171875 C 48.542969 6.171875 62 16.753906 62 29.757813 C 62 42.761719 48.542969 53.34375 32 53.34375 C 29.679688 53.34375 27.34375 53.128906 25.058594 52.703125 C 24.632813 52.621094 24.203125 52.824219 23.996094 53.203125 C 23.324219 54.429688 20.800781 58.261719 14.714844 60.257813 C 16.425781 56.523438 16.851563 52.867188 16.941406 50.839844 C 16.960938 50.441406 16.738281 50.066406 16.378906 49.890625 C 7.375 45.5625 2 38.035156 2 29.761719 C 2 16.753906 15.457031 6.171875 32 6.171875 Z M 32 10 C 18.238281 10 7.042969 18.972656 7.042969 30 C 7.042969 31.34375 7.210938 32.6875 7.539063 33.996094 C 7.652344 34.449219 8.0625 34.75 8.507813 34.75 C 8.589844 34.75 8.675781 34.742188 8.757813 34.71875 C 9.292969 34.585938 9.617188 34.042969 9.480469 33.507813 C 9.191406 32.359375 9.042969 31.179688 9.042969 30 C 9.042969 20.074219 19.339844 12 32 12 C 36.066406 12 40.0625 12.84375 43.554688 14.449219 C 44.054688 14.675781 44.652344 14.457031 44.878906 13.953125 C 45.109375 13.453125 44.890625 12.859375 44.390625 12.628906 C 40.636719 10.910156 36.351563 10 32 10 Z M 48.054688 15.019531 C 47.800781 15.0625 47.566406 15.199219 47.402344 15.421875 C 47.078125 15.867188 47.175781 16.492188 47.621094 16.816406 C 48.515625 17.472656 49.351563 18.183594 50.101563 18.9375 C 50.296875 19.136719 50.554688 19.234375 50.8125 19.234375 C 51.066406 19.234375 51.320313 19.136719 51.515625 18.941406 C 51.910156 18.550781 51.910156 17.917969 51.519531 17.527344 C 50.695313 16.699219 49.78125 15.914063 48.796875 15.199219 C 48.574219 15.035156 48.308594 14.980469 48.054688 15.019531 Z M 53.476563 20.8125 C 53.347656 20.832031 53.21875 20.875 53.101563 20.949219 C 52.628906 21.234375 52.476563 21.847656 52.765625 22.320313 C 54.21875 24.730469 54.957031 27.3125 54.957031 30 C 54.957031 38.195313 47.894531 45.359375 37.789063 47.421875 C 37.25 47.53125 36.898438 48.0625 37.011719 48.601563 C 37.105469 49.074219 37.523438 49.402344 37.988281 49.402344 C 38.054688 49.402344 38.121094 49.394531 38.1875 49.378906 C 49.238281 47.125 56.957031 39.15625 56.957031 30 C 56.957031 26.945313 56.121094 24.011719 54.472656 21.285156 C 54.261719 20.929688 53.863281 20.757813 53.476563 20.8125 Z M 36 22 C 35.746094 22 35.488281 22.097656 35.292969 22.292969 C 34.902344 22.683594 34.902344 23.316406 35.292969 23.707031 L 39.585938 28 L 21 28 C 20.449219 28 20 28.449219 20 29 C 20 29.550781 20.449219 30 21 30 L 39.585938 30 L 35.292969 34.292969 C 34.902344 34.683594 34.902344 35.316406 35.292969 35.707031 C 35.488281 35.902344 35.742188 36 36 36 C 36.257813 36 36.511719 35.902344 36.707031 35.707031 L 42.707031 29.707031 C 43.097656 29.316406 43.097656 28.683594 42.707031 28.292969 L 36.707031 22.292969 C 36.511719 22.097656 36.253906 22 36 22 Z M 12.945313 36.8125 C 12.695313 36.765625 12.421875 36.820313 12.199219 36.976563 L 10.558594 38.121094 C 10.105469 38.4375 9.996094 39.0625 10.3125 39.515625 C 10.507813 39.792969 10.816406 39.941406 11.132813 39.941406 C 11.332031 39.941406 11.527344 39.882813 11.703125 39.761719 L 13.34375 38.613281 C 13.796875 38.296875 13.90625 37.675781 13.589844 37.222656 C 13.433594 36.996094 13.195313 36.855469 12.945313 36.8125 Z M 16.386719 40.84375 C 16.128906 40.867188 15.882813 40.984375 15.703125 41.199219 L 14.417969 42.730469 C 14.0625 43.152344 14.117188 43.78125 14.542969 44.136719 C 14.726563 44.292969 14.957031 44.371094 15.183594 44.371094 C 15.46875 44.371094 15.75 44.25 15.949219 44.015625 L 17.234375 42.484375 C 17.589844 42.058594 17.535156 41.429688 17.113281 41.074219 C 16.902344 40.898438 16.640625 40.820313 16.386719 40.84375 Z M 21.128906 43.789063 C 20.738281 43.773438 20.359375 43.988281 20.1875 44.363281 L 19.339844 46.175781 C 19.105469 46.675781 19.320313 47.273438 19.820313 47.507813 C 19.957031 47.570313 20.101563 47.601563 20.246094 47.601563 C 20.621094 47.601563 20.980469 47.386719 21.152344 47.023438 L 21.996094 45.214844 C 22.230469 44.714844 22.015625 44.117188 21.515625 43.886719 C 21.390625 43.824219 21.257813 43.792969 21.128906 43.789063 Z M 26.492188 45.457031 C 25.945313 45.363281 25.429688 45.726563 25.332031 46.269531 L 24.984375 48.238281 C 24.886719 48.78125 25.253906 49.300781 25.796875 49.394531 C 25.855469 49.40625 25.914063 49.410156 25.96875 49.410156 C 26.445313 49.410156 26.867188 49.070313 26.953125 48.585938 L 27.304688 46.617188 C 27.402344 46.074219 27.035156 45.554688 26.492188 45.457031 Z M 31.710938 45.6875 C 31.160156 45.738281 30.753906 46.222656 30.800781 46.769531 L 30.972656 48.765625 C 31.019531 49.285156 31.453125 49.679688 31.96875 49.679688 C 31.996094 49.679688 32.027344 49.679688 32.054688 49.675781 C 32.605469 49.628906 33.011719 49.144531 32.964844 48.59375 L 32.792969 46.597656 C 32.746094 46.046875 32.25 45.628906 31.710938 45.6875 Z "></path>
</g>
</svg>