<svg xmlns="http://www.w3.org/2000/svg" xmlns:xlink="http://www.w3.org/1999/xlink" viewBox="0 0 64 64" version="1.1">
<g id="surface1">
<path style=" " d="M 32.246094 0.00390625 C 30.058594 -0.046875 27.996094 0.738281 26.429688 2.257813 C 24.863281 3.777344 24 5.816406 24 8 L 24 38.015625 C 24 38.328125 23.867188 38.613281 23.644531 38.78125 C 19.507813 41.859375 17.445313 46.769531 18.125 51.90625 C 18.953125 58.152344 24.105469 63.199219 30.375 63.90625 C 30.90625 63.96875 31.4375 64 31.96875 64 C 35.410156 64 38.75 62.742188 41.324219 60.441406 C 44.292969 57.789063 46 53.980469 46 50 C 46 45.539063 43.941406 41.449219 40.351563 38.777344 C 40.132813 38.613281 40 38.324219 40 38.011719 L 40 8.296875 C 40 3.851563 36.519531 0.132813 32.246094 0.00390625 Z M 32 2 C 32.058594 2 32.125 2 32.1875 2.003906 C 35.390625 2.101563 38 4.921875 38 8.296875 L 38 18.007813 C 37.984375 18.007813 37.976563 18 37.960938 18 L 26 18 L 26 14.964844 L 28.960938 14.964844 C 29.511719 14.964844 29.960938 14.515625 29.960938 13.964844 C 29.960938 13.410156 29.515625 13 28.960938 13 L 26 13 L 26 9.960938 L 30.960938 9.960938 C 31.511719 9.960938 31.960938 9.515625 31.960938 8.960938 C 31.960938 8.410156 31.515625 8 30.960938 8 L 26 8 C 26.011719 6.378906 26.65625 4.824219 27.820313 3.695313 C 28.953125 2.597656 30.429688 2 32 2 Z M 38 19.953125 L 38 38.011719 C 38 38.953125 38.433594 39.84375 39.15625 40.378906 C 42.234375 42.675781 44 46.179688 44 50 C 44 53.414063 42.539063 56.675781 39.992188 58.953125 C 37.410156 61.257813 34.074219 62.320313 30.597656 61.921875 C 25.230469 61.316406 20.820313 56.992188 20.109375 51.640625 C 19.527344 47.234375 21.296875 43.027344 24.84375 40.382813 C 25.003906 40.261719 25.148438 40.117188 25.28125 39.964844 L 30.964844 39.964844 C 31.515625 39.964844 31.964844 39.515625 31.964844 38.964844 C 31.964844 38.410156 31.515625 38 30.960938 38 L 26 38 L 26 34.964844 L 28.960938 34.964844 C 29.511719 34.964844 29.960938 34.515625 29.960938 33.964844 C 29.960938 33.410156 29.515625 33 28.960938 33 L 26 33 L 26 29.964844 L 30.960938 29.964844 C 31.511719 29.964844 31.960938 29.515625 31.960938 28.964844 C 31.960938 28.410156 31.515625 28 30.960938 28 L 26 28 L 26 24.964844 L 28.960938 24.964844 C 29.511719 24.964844 29.960938 24.515625 29.960938 23.964844 C 29.960938 23.410156 29.515625 23 28.960938 23 L 26 23 L 26 19.964844 L 37.960938 19.964844 C 37.976563 19.964844 37.984375 19.953125 38 19.953125 Z M 36.5625 42.324219 C 36.179688 42.253906 35.773438 42.414063 35.546875 42.757813 C 35.242188 43.21875 35.371094 43.839844 35.832031 44.140625 C 36.308594 44.453125 36.746094 44.824219 37.136719 45.242188 C 37.332031 45.453125 37.597656 45.5625 37.867188 45.5625 C 38.109375 45.5625 38.355469 45.472656 38.546875 45.296875 C 38.949219 44.917969 38.976563 44.285156 38.597656 43.878906 C 38.101563 43.347656 37.539063 42.871094 36.929688 42.46875 C 36.8125 42.394531 36.691406 42.34375 36.5625 42.324219 Z M 39.660156 47.484375 C 39.121094 47.585938 38.765625 48.109375 38.871094 48.65625 C 38.957031 49.097656 39 49.550781 39 50 C 39 51.273438 38.65625 52.519531 38 53.605469 C 37.71875 54.078125 37.871094 54.691406 38.34375 54.976563 C 38.503906 55.074219 38.679688 55.121094 38.859375 55.121094 C 39.195313 55.121094 39.527344 54.949219 39.71875 54.636719 C 40.558594 53.238281 41 51.636719 41 50 C 41 49.421875 40.945313 48.839844 40.835938 48.273438 C 40.730469 47.730469 40.203125 47.375 39.660156 47.484375 Z "></path>
</g>
</svg>