<svg xmlns="http://www.w3.org/2000/svg" xmlns:xlink="http://www.w3.org/1999/xlink" viewBox="0 0 64 64" version="1.1">
<g id="surface1">
<path style=" " d="M 3 6 C 1.351563 6 0 7.351563 0 9 L 0 51 C 0 52.648438 1.351563 54 3 54 L 40.050781 54 C 42.359375 57.609375 46.398438 60 51 60 C 58.171875 60 64 54.171875 64 47 C 64 41.601563 60.691406 36.960938 56 35 L 56 9 C 56 7.351563 54.648438 6 53 6 Z M 3 8 L 53 8 C 53.550781 8 54 8.449219 54 9 L 54 12 L 2 12 L 2 9 C 2 8.449219 2.449219 8 3 8 Z M 2 14 L 54 14 L 54 34.347656 C 53.039063 34.121094 52.03125 34 51 34 C 50.449219 34 50 34.449219 50 35 L 50 39 C 50 39.550781 50.449219 40 51 40 C 51.550781 40 52 39.550781 52 39 L 52 36.039063 C 52.691406 36.097656 53.351563 36.230469 54 36.410156 C 54.699219 36.609375 55.371094 36.878906 56 37.199219 C 59.558594 39.027344 62 42.730469 62 47 C 62 53.070313 57.070313 58 51 58 C 47.589844 58 44.53125 56.441406 42.511719 54 C 42 53.378906 41.558594 52.710938 41.199219 52 C 40.429688 50.5 40 48.800781 40 47 C 40 44.394531 40.898438 41.9375 42.546875 39.964844 L 49.074219 46.488281 C 49.03125 46.652344 49 46.820313 49 47 C 49 48.101563 49.898438 49 51 49 C 52.101563 49 53 48.101563 53 47 C 53 45.898438 52.101563 45 51 45 C 50.820313 45 50.652344 45.03125 50.488281 45.074219 L 43.464844 38.050781 C 43.417969 38.003906 43.363281 37.984375 43.3125 37.949219 C 43.28125 37.902344 43.261719 37.851563 43.21875 37.808594 C 42.832031 37.417969 42.199219 37.417969 41.8125 37.808594 C 39.347656 40.257813 38 43.53125 38 47 C 38 48.769531 38.359375 50.460938 39 52 L 3 52 C 2.449219 52 2 51.550781 2 51 Z M 15 18 C 14.746094 18 14.488281 18.097656 14.292969 18.292969 L 11 21.585938 L 9.707031 20.292969 C 9.316406 19.902344 8.683594 19.902344 8.292969 20.292969 C 7.902344 20.683594 7.902344 21.316406 8.292969 21.707031 L 10.292969 23.707031 C 10.488281 23.902344 10.742188 24 11 24 C 11.257813 24 11.511719 23.902344 11.707031 23.707031 L 15.707031 19.707031 C 16.097656 19.316406 16.097656 18.683594 15.707031 18.292969 C 15.511719 18.097656 15.253906 18 15 18 Z M 19 20 C 18.449219 20 18 20.445313 18 21 C 18 21.554688 18.449219 22 19 22 L 23 22 C 23.550781 22 24 21.554688 24 21 C 24 20.445313 23.550781 20 23 20 Z M 27 20 C 26.449219 20 26 20.445313 26 21 C 26 21.554688 26.449219 22 27 22 L 43 22 C 43.550781 22 44 21.554688 44 21 C 44 20.445313 43.550781 20 43 20 Z M 15 26 C 14.746094 26 14.488281 26.097656 14.292969 26.292969 L 11 29.585938 L 9.707031 28.292969 C 9.316406 27.902344 8.683594 27.902344 8.292969 28.292969 C 7.902344 28.683594 7.902344 29.316406 8.292969 29.707031 L 10.292969 31.707031 C 10.488281 31.902344 10.742188 32 11 32 C 11.257813 32 11.511719 31.902344 11.707031 31.707031 L 15.707031 27.707031 C 16.097656 27.316406 16.097656 26.683594 15.707031 26.292969 C 15.511719 26.097656 15.253906 26 15 26 Z M 19 28 C 18.449219 28 18 28.445313 18 29 C 18 29.554688 18.449219 30 19 30 L 43 30 C 43.550781 30 44 29.554688 44 29 C 44 28.445313 43.550781 28 43 28 Z M 15 34 C 14.746094 34 14.488281 34.097656 14.292969 34.292969 L 11 37.585938 L 9.707031 36.292969 C 9.316406 35.902344 8.683594 35.902344 8.292969 36.292969 C 7.902344 36.683594 7.902344 37.316406 8.292969 37.707031 L 10.292969 39.707031 C 10.488281 39.902344 10.742188 40 11 40 C 11.257813 40 11.511719 39.902344 11.707031 39.707031 L 15.707031 35.707031 C 16.097656 35.316406 16.097656 34.683594 15.707031 34.292969 C 15.511719 34.097656 15.253906 34 15 34 Z M 19 36 C 18.449219 36 18 36.445313 18 37 C 18 37.554688 18.449219 38 19 38 L 35 38 C 35.550781 38 36 37.554688 36 37 C 36 36.445313 35.550781 36 35 36 Z M 6 46 C 5.449219 46 5 46.445313 5 47 L 5 49 C 5 49.554688 5.449219 50 6 50 C 6.550781 50 7 49.554688 7 49 L 7 47 C 7 46.445313 6.550781 46 6 46 Z M 11 46 C 10.449219 46 10 46.445313 10 47 L 10 49 C 10 49.554688 10.449219 50 11 50 C 11.550781 50 12 49.554688 12 49 L 12 47 C 12 46.445313 11.550781 46 11 46 Z M 16 46 C 15.449219 46 15 46.445313 15 47 L 15 49 C 15 49.554688 15.449219 50 16 50 C 16.550781 50 17 49.554688 17 49 L 17 47 C 17 46.445313 16.550781 46 16 46 Z M 21 46 C 20.449219 46 20 46.445313 20 47 L 20 49 C 20 49.554688 20.449219 50 21 50 C 21.550781 50 22 49.554688 22 49 L 22 47 C 22 46.445313 21.550781 46 21 46 Z M 26 46 C 25.449219 46 25 46.445313 25 47 L 25 49 C 25 49.554688 25.449219 50 26 50 C 26.550781 50 27 49.554688 27 49 L 27 47 C 27 46.445313 26.550781 46 26 46 Z M 31 46 C 30.449219 46 30 46.445313 30 47 L 30 49 C 30 49.554688 30.449219 50 31 50 C 31.550781 50 32 49.554688 32 49 L 32 47 C 32 46.445313 31.550781 46 31 46 Z M 36 46 C 35.449219 46 35 46.445313 35 47 L 35 49 C 35 49.554688 35.449219 50 36 50 C 36.550781 50 37 49.554688 37 49 L 37 47 C 37 46.445313 36.550781 46 36 46 Z "></path>
</g>
</svg>