<svg width="25" height="25" viewBox="0 0 25 25" xmlns="http://www.w3.org/2000/svg"><title>Page-1</title><path d="M17.299 10.571c0-1.852-.659-3.436-1.975-4.752-1.316-1.317-2.9-1.975-4.753-1.975-1.852 0-3.436.658-4.752 1.975-1.317 1.316-1.975 2.9-1.975 4.752 0 1.852.658 3.437 1.975 4.753 1.316 1.316 2.9 1.975 4.752 1.975 1.852 0 3.437-.659 4.753-1.975 1.316-1.316 1.975-2.9 1.975-4.753zm7.688 12.494c0 .52-.19.97-.57 1.351-.381.38-.832.57-1.352.57-.54 0-.991-.19-1.352-.57l-5.15-5.135c-1.792 1.241-3.79 1.862-5.992 1.862-1.431 0-2.8-.278-4.107-.834-1.306-.555-2.432-1.306-3.378-2.252-.946-.946-1.697-2.072-2.253-3.379A10.388 10.388 0 0 1 0 10.571c0-1.431.278-2.8.833-4.107.556-1.306 1.307-2.432 2.253-3.378.946-.946 2.072-1.697 3.378-2.253A10.388 10.388 0 0 1 10.571 0c1.432 0 2.8.278 4.107.833 1.307.556 2.433 1.307 3.379 2.253.946.946 1.697 2.072 2.252 3.378.556 1.307.834 2.676.834 4.107 0 2.203-.62 4.2-1.862 5.992l5.15 5.15c.37.37.556.821.556 1.352z" fill="#333" fill-rule="evenodd"/></svg>